<?xml version="1.0" encoding="UTF-8" standalone="no"?>
<!DOCTYPE svg PUBLIC "-//W3C//DTD SVG 1.1//EN" "http://www.w3.org/Graphics/SVG/1.1/DTD/svg11.dtd">
<svg width="100%" height="100%" viewBox="0 0 575 654" version="1.1" xmlns="http://www.w3.org/2000/svg" xmlns:xlink="http://www.w3.org/1999/xlink" xml:space="preserve" xmlns:serif="http://www.serif.com/" style="fill-rule:evenodd;clip-rule:evenodd;stroke-linejoin:round;stroke-miterlimit:2;">
    <g transform="matrix(1,0,0,1,-864.077,-339.251)">
        <g id="Icon-Circle-Logo-Color" serif:id="Icon Circle Logo Color" transform="matrix(0.50225,0,0,0.50225,517.617,-279.737)">
            <g transform="matrix(1,0,0,1,21.485,81.313)">
                <path d="M1240.16,1151.12L1606.87,1362.84L1240.16,1574.56L873.446,1362.84L1240.16,1151.12ZM1240.16,1468.05L1422.4,1362.84L1240.16,1257.62L1057.91,1362.84L1240.16,1468.05ZM1719.75,1962.54L1379.33,2159.09L1379.33,2052.58L1811.99,1802.79L1811.99,2121.62L1379.33,2371.42L1379.33,2264.92L1719.75,2068.37L1719.75,1962.54ZM760.564,1962.54L760.564,2068.37L1100.99,2264.92L1100.99,2371.42L668.33,2121.62L668.33,1802.79L1100.99,2052.58L1100.99,2159.09L760.564,1962.54Z" style="fill:white;"/>
            </g>
            <g transform="matrix(1,0,0,1,21.485,81.313)">
                <path d="M1240.16,1679.25L1368.3,1605.27L1697.84,1415.36L1811.99,1481.26L1811.99,1696.04L1719.75,1749.29L1719.75,1534.51L1697.54,1521.69L1287.09,1758.66L1287.09,2424.67L1240.16,2451.77L1193.22,2424.67L1193.22,1758.66L782.777,1521.69L760.564,1534.51L760.564,1749.29L668.33,1696.04L668.33,1481.26L782.478,1415.36L1112.02,1605.27L1240.16,1679.25Z" style="fill:rgb(250,255,0);"/>
            </g>
        </g>
    </g>
</svg>
