<?xml version="1.0" encoding="UTF-8" standalone="no"?>
<!DOCTYPE svg PUBLIC "-//W3C//DTD SVG 1.1//EN" "http://www.w3.org/Graphics/SVG/1.1/DTD/svg11.dtd">
<svg width="100%" height="100%" viewBox="0 0 574 654" version="1.1" xmlns="http://www.w3.org/2000/svg" xmlns:xlink="http://www.w3.org/1999/xlink" xml:space="preserve" xmlns:serif="http://www.serif.com/" style="fill-rule:evenodd;clip-rule:evenodd;stroke-linejoin:round;stroke-miterlimit:2;">
    <g transform="matrix(1,0,0,1,-157.129,-339.251)">
        <g transform="matrix(0.294834,0,0,0.294834,71.7826,110.779)">
            <path d="M2233.81,1336.2L2233.81,2429.31L1261.64,2990.59L289.474,2429.31L289.474,1336.2L1261.64,774.921L2233.81,1336.2ZM585.026,1311.98L416.274,1409.41L416.274,1726.93L552.63,1805.65L552.63,1488.14L585.468,1469.18L1192.25,1819.5L1192.25,2804.11L1261.64,2844.17L1331.03,2804.11L1331.03,1819.5L1937.82,1469.18L1970.65,1488.14L1970.65,1805.65L2107.01,1726.93L2107.01,1409.41L1938.26,1311.98L1451.08,1592.74L1261.64,1702.12L1072.2,1592.74L585.026,1311.98ZM416.274,1884.75L416.274,2356.1L1055.9,2725.39L1055.9,2567.94L552.63,2277.38L552.63,2120.92L1055.9,2411.48L1055.9,2254.03L416.274,1884.75ZM1467.39,2725.39L2107.01,2356.1L2107.01,1884.75L1467.39,2254.03L1467.39,2411.48L1970.65,2120.92L1970.65,2277.38L1467.39,2567.94L1467.39,2725.39ZM1803.77,1234.34L1261.64,921.337L719.51,1234.34L1261.64,1547.34L1803.77,1234.34ZM1261.64,1389.89L992.222,1234.34L1261.64,1078.79L1531.06,1234.34L1261.64,1389.89Z"/>
        </g>
    </g>
</svg>
