<?xml version="1.0" encoding="UTF-8" standalone="no"?>
<!DOCTYPE svg PUBLIC "-//W3C//DTD SVG 1.1//EN" "http://www.w3.org/Graphics/SVG/1.1/DTD/svg11.dtd">
<svg width="100%" height="100%" viewBox="0 0 575 654" version="1.1" xmlns="http://www.w3.org/2000/svg" xmlns:xlink="http://www.w3.org/1999/xlink" xml:space="preserve" xmlns:serif="http://www.serif.com/" style="fill-rule:evenodd;clip-rule:evenodd;stroke-linejoin:round;stroke-miterlimit:2;">
    <g transform="matrix(1,0,0,1,-864.077,-1266.41)">
        <g id="Icon-Circle-Logo-Color" serif:id="Icon Circle Logo Color" transform="matrix(0.50225,0,0,0.50225,517.617,647.426)">
            <path d="M1261.64,1232.43L1628.35,1444.15L1261.64,1655.87L894.931,1444.15L1261.64,1232.43ZM1261.64,1549.37L1443.88,1444.15L1261.64,1338.93L1079.4,1444.15L1261.64,1549.37ZM1741.24,2043.86L1400.81,2240.4L1400.81,2133.9L1833.47,1884.1L1833.47,2202.94L1400.81,2452.73L1400.81,2346.23L1741.24,2149.69L1741.24,2043.86ZM782.049,2043.86L782.049,2149.69L1122.47,2346.23L1122.47,2452.73L689.815,2202.94L689.815,1884.1L1122.47,2133.9L1122.47,2240.4L782.049,2043.86ZM1261.64,1760.57L1389.78,1686.59L1719.32,1496.67L1833.47,1562.57L1833.47,1777.35L1741.24,1830.6L1741.24,1615.83L1719.02,1603L1308.58,1839.97L1308.58,2505.98L1261.64,2533.08L1214.71,2505.98L1214.71,1839.97L804.262,1603L782.049,1615.83L782.049,1830.6L689.815,1777.35L689.815,1562.57L803.963,1496.67L1133.5,1686.59L1261.64,1760.57Z"/>
        </g>
    </g>
</svg>
