<?xml version="1.0" encoding="UTF-8" standalone="no"?><!DOCTYPE svg PUBLIC "-//W3C//DTD SVG 1.1//EN" "http://www.w3.org/Graphics/SVG/1.1/DTD/svg11.dtd"><svg width="100%" height="100%" viewBox="0 0 97 216" version="1.1" xmlns="http://www.w3.org/2000/svg" xmlns:xlink="http://www.w3.org/1999/xlink" xml:space="preserve" xmlns:serif="http://www.serif.com/" style="fill-rule:evenodd;clip-rule:evenodd;stroke-linejoin:round;stroke-miterlimit:2;"><g id="muscles_front"><path id="body_front" d="M30.905,88.901l-0.001,-0.001l0.171,-3.122c0.095,-1.718 0.323,-3.987 0.508,-5.043c0.185,-1.056 0.336,-1.971 0.336,-2.033c0,-0.003 0.002,-0.004 0.005,-0.004c0.059,-0.001 0.655,0.528 1.376,1.222l-0,0.001c0.759,0.731 1.949,1.793 2.646,2.359l0,0.001c0.697,0.566 1.369,1.221 1.494,1.454c0.125,0.234 0.614,2.676 1.087,5.426c0.562,3.267 0.964,5.194 1.064,5.219c0.046,0.009 0.027,-0.394 -0.071,-1.266c-0.08,-0.699 -0.073,-1.047 0.017,-1.046c0.119,-0.001 0.386,0.625 0.792,1.867c1.123,3.443 4.579,11.356 5.105,11.691c0.392,0.249 5.248,0.231 5.646,-0.021c0.471,-0.299 4.385,-9.266 5.46,-12.51c0.244,-0.735 0.354,-1.051 0.43,-1.05c0.055,-0.001 0.092,0.162 0.148,0.45c0.021,0.11 0.046,0.167 0.076,0.167c0.114,-0.001 0.298,-0.817 0.618,-2.687c1.068,-6.238 1.099,-6.331 2.506,-7.474l-0,-0c0.683,-0.556 1.911,-1.656 2.728,-2.447c0.885,-0.856 1.246,-1.193 1.424,-1.193c0.109,-0 0.15,0.125 0.199,0.335c0.454,1.907 0.627,3.344 0.766,6.357l0.155,3.377l-0,0l-2.356,2.456c-2.761,2.876 -3.906,3.827 -5.103,4.239l-0.001,-0c-0.322,0.111 -0.624,0.262 -0.801,0.393l-0.001,0.001c-0.086,0.064 -0.144,0.123 -0.16,0.171c-0.146,0.439 0.921,0.299 1.784,-0.234c0.444,-0.275 0.808,-0.419 0.808,-0.321c-0,0.099 -0.582,1.16 -1.294,2.359c-1.638,2.761 -3.094,5.677 -5.338,10.692c-2.104,4.703 -2.608,5.32 -4.472,5.475c-1.383,0.114 -2.338,-0.22 -3.129,-1.094c-0.238,-0.263 -1.061,-1.921 -1.829,-3.685c-2.116,-4.856 -3.904,-8.469 -5.504,-11.121c-0.795,-1.317 -1.414,-2.426 -1.375,-2.465c0.038,-0.038 0.54,0.141 1.115,0.399c0.999,0.447 1.426,0.459 1.426,0.039c-0,-0.039 -0.067,-0.1 -0.182,-0.173l-0.004,-0.001c-0.196,-0.125 -0.53,-0.284 -0.91,-0.428l-0.044,-0.017c-0.895,-0.333 -1.806,-1.103 -4.228,-3.569l-3.087,-3.145Zm27.169,110.334c0.595,-2.189 0.698,-2.26 2.341,-1.636c0.498,0.189 1.449,0.453 2.114,0.587c2.251,0.451 2.354,0.535 2.822,2.294c0.403,1.512 0.404,1.68 0.023,3.04l-0.404,1.44l2.135,3.159c2.477,3.663 2.523,3.757 2.284,4.65c-0.157,0.587 -0.407,0.744 -1.905,1.2c-2.513,0.764 -3.605,0.908 -4.254,0.561c-0.476,-0.255 -0.648,-0.224 -1.205,0.214c-1.176,0.925 -2.259,0.638 -3.308,-0.874c-0.565,-0.817 -0.663,-1.237 -0.775,-3.315c-0.07,-1.309 -0.033,-3.103 0.081,-3.986c0.157,-1.211 0.12,-1.92 -0.147,-2.88c-0.464,-1.662 -0.445,-2.094 0.198,-4.454Zm-20.241,-2.127c0.018,0.015 0.333,1.094 0.701,2.398c0.624,2.211 0.647,2.446 0.339,3.48c-0.226,0.761 -0.333,2.517 -0.341,5.585l-0.012,4.475l-0.745,0.925c-1.055,1.309 -1.812,1.527 -3.015,0.868c-0.754,-0.413 -1.049,-0.468 -1.387,-0.257c-0.475,0.297 -2.124,0.043 -4.693,-0.723c-1.397,-0.416 -1.442,-0.457 -1.514,-1.317c-0.066,-0.779 0.206,-1.306 2.229,-4.316l2.303,-3.428l-0.369,-0.884c-0.472,-1.13 -0.465,-1.999 0.028,-3.773l0.396,-1.427l1.344,-0.264c0.738,-0.146 2.099,-0.514 3.023,-0.817c0.923,-0.304 1.693,-0.539 1.713,-0.525Zm27.11,-46.173c0.482,-2.296 1.622,-5.992 1.702,-5.52c0.034,0.199 0.226,2.156 0.428,4.35c0.202,2.194 0.367,4.784 0.367,5.756l-0,1.766l-0.618,-0.91c-0.986,-1.45 -1.329,-1.144 -1.836,1.639c-1.446,7.922 -2.641,18.066 -3.809,32.333l-0.545,6.653l-0.616,-0.133c-0.339,-0.074 -0.751,-0.176 -0.916,-0.226c-0.408,-0.126 -0.389,-2.464 0.046,-5.764c0.665,-5.037 1.133,-11.537 1.157,-16.064c0.027,-5.067 -0.265,-7.008 -1.489,-9.898c-1.692,-3.996 -2.201,-5.418 -2.984,-8.342c-0.768,-2.869 -1.732,-9.17 -1.548,-10.118c0.191,-0.985 1.491,1.818 3.188,6.878c1.218,3.631 1.978,5.538 2.318,5.82c0.707,0.587 3.107,0.586 3.639,-0.001c0.25,-0.276 0.513,-1.459 0.76,-3.42c0.208,-1.649 0.548,-3.809 0.756,-4.799Zm-35.021,-5.52c0.049,0 0.205,0.297 0.345,0.66c0.663,1.717 1.675,6.241 2.013,9.005c0.416,3.398 0.615,4.118 1.201,4.342c0.688,0.264 2.889,0.167 3.309,-0.147c0.222,-0.166 1.236,-2.77 2.266,-5.82c1.877,-5.557 2.985,-7.996 3.139,-6.91c0.162,1.134 -0.723,7.246 -1.38,9.538c-0.381,1.327 -0.769,2.79 -0.862,3.252c-0.094,0.463 -0.706,2.017 -1.36,3.454c-0.655,1.437 -1.415,3.435 -1.689,4.44c-1.002,3.666 -0.781,13.387 0.546,24.024c0.656,5.259 0.66,5.207 -0.417,5.505c-0.487,0.134 -0.934,0.197 -0.992,0.138c-0.058,-0.058 -0.353,-2.998 -0.655,-6.533c-1.44,-16.846 -2.325,-24.373 -3.853,-32.768c-0.428,-2.347 -0.8,-2.657 -1.653,-1.38c-0.264,0.396 -0.534,0.719 -0.6,0.72c-0.132,0.001 0.091,-5.499 0.373,-9.18c0.099,-1.286 0.22,-2.339 0.269,-2.34Zm33.324,-2.296c0.007,2.164 0.345,3.397 1.176,4.293l0.559,0.605l-0.793,3.518l-1.194,0.421c-0.89,0.313 -1.591,0.384 -2.754,0.279c-1.144,-0.104 -1.491,-0.07 -1.302,0.126c0.412,0.426 2.612,0.584 3.838,0.275c0.617,-0.155 1.156,-0.248 1.198,-0.207c0.177,0.178 -0.642,6.05 -0.885,6.343c-0.34,0.41 -2.385,0.426 -2.903,0.023c-0.212,-0.165 -1.146,-2.547 -2.077,-5.293c-1.565,-4.619 -1.652,-4.98 -1.16,-4.808c2.202,0.77 3.139,-0.601 3.55,-5.198c0.112,-1.249 0.208,-2.272 0.214,-2.281l1.268,-0.016l1.259,-0.017l0.006,1.937Zm-27.18,0.376c0.151,2.659 0.727,4.416 1.679,5.126c0.58,0.432 0.762,0.459 1.424,0.209c0.418,-0.157 0.787,-0.259 0.821,-0.225c0.134,0.137 -3.204,9.761 -3.516,10.137c-0.261,0.314 -0.618,0.381 -1.604,0.299c-0.698,-0.058 -1.344,-0.18 -1.436,-0.271c-0.092,-0.093 -0.342,-1.576 -0.557,-3.298l-0.391,-3.13l0.497,0.14c1.123,0.316 2.564,0.424 3.598,0.269c1.591,-0.239 1.41,-0.689 -0.196,-0.489c-0.902,0.113 -1.698,0.045 -2.629,-0.226c-1.222,-0.355 -1.357,-0.464 -1.588,-1.285c-0.571,-2.027 -0.581,-2.686 -0.048,-3.253c0.792,-0.843 1.24,-2.452 1.24,-4.453l-0,-1.83l2.577,0l0.129,2.28Zm51.57,-40.777c0.086,-0.012 0.734,0.348 1.44,0.802c2.205,1.415 2.945,2.191 4.641,4.863c0.905,1.426 1.951,3.057 2.324,3.624c0.772,1.173 0.844,1.614 0.299,1.823c-0.763,0.292 -1.123,0.119 -2.52,-1.213c-0.783,-0.747 -1.498,-1.284 -1.589,-1.193c-0.091,0.092 0.03,1.755 0.268,3.698c0.813,6.639 0.844,7.026 0.617,7.625c-0.156,0.41 -0.408,0.588 -0.83,0.588c-0.333,0 -0.606,-0.081 -0.606,-0.18c-0,-0.48 -1.447,-8.307 -1.555,-8.415c-0.424,-0.423 -0.324,0.717 0.448,5.107c0.477,2.715 0.867,5.034 0.867,5.156c-0,0.314 -0.705,0.973 -1.037,0.968c-0.742,-0.009 -0.966,-0.647 -1.847,-5.267c-0.51,-2.673 -0.988,-4.921 -1.062,-4.994c-0.405,-0.406 -0.326,0.52 0.349,4.122c0.801,4.275 0.836,5.254 0.192,5.376c-0.695,0.132 -1.106,-0.906 -1.956,-4.946c-0.453,-2.151 -0.89,-3.978 -0.971,-4.059c-0.417,-0.416 -0.371,0.405 0.171,3.089c0.329,1.627 0.547,3.04 0.485,3.141c-0.202,0.327 -0.961,0.192 -1.339,-0.238c-0.204,-0.231 -0.756,-1.986 -1.226,-3.9c-1.95,-7.929 -2.108,-9.176 -1.516,-12l0.277,-1.32l2.76,-1.117c1.518,-0.615 2.83,-1.128 2.916,-1.14Zm-82.999,3.264c0.839,-1.088 3.972,-3.275 4.483,-3.13c0.198,0.057 1.386,0.493 2.64,0.969c1.254,0.477 2.459,1.02 2.678,1.207c0.254,0.218 0.508,1.088 0.705,2.408c0.27,1.815 0.257,2.316 -0.107,4.123c-0.751,3.73 -2.355,9.967 -2.704,10.516c-0.344,0.541 -1.147,0.728 -1.396,0.326c-0.073,-0.118 0.137,-1.54 0.467,-3.159c0.55,-2.704 0.601,-3.431 0.211,-3.04c-0.081,0.08 -0.55,1.983 -1.042,4.229c-0.86,3.923 -1.195,4.828 -1.781,4.82c-0.88,-0.012 -0.882,-0.328 -0.04,-4.919c0.458,-2.493 0.78,-4.586 0.717,-4.65c-0.318,-0.317 -0.602,0.715 -1.339,4.878c-0.478,2.699 -0.957,4.733 -1.181,5.01c-0.479,0.592 -1.37,0.359 -1.563,-0.408c-0.074,-0.298 0.257,-2.73 0.737,-5.406c0.781,-4.352 0.882,-5.424 0.473,-5.016c-0.068,0.069 -0.448,1.896 -0.842,4.06c-0.853,4.675 -0.809,4.535 -1.431,4.535c-1.022,0 -1.065,-0.8 -0.349,-6.456c0.369,-2.915 0.599,-5.372 0.511,-5.46c-0.089,-0.088 -0.801,0.451 -1.584,1.198c-0.784,0.747 -1.548,1.358 -1.698,1.358c-0.431,0 -1.202,-0.472 -1.202,-0.737c0,-0.278 3.597,-5.907 4.637,-7.256Zm26.43,-13.81c0.32,0.37 0.715,1.363 0.942,2.37c0.215,0.952 0.391,2.198 0.391,2.768c-0,0.597 -0.759,3.555 -1.794,6.99c-2.408,7.993 -3.226,10.422 -3.237,9.618c-0.037,-2.662 2.313,-20.198 2.918,-21.783l0.23,-0.6l0.55,0.637Zm34.93,-0.517c0.09,0.001 0.396,1.108 0.681,2.46c0.74,3.511 1.161,6.47 1.843,12.953c0.755,7.17 0.755,7.866 0.003,5.467c-0.31,-0.99 -1.28,-4.068 -2.155,-6.84c-2.019,-6.39 -2.369,-7.872 -2.187,-9.262c0.337,-2.573 1.175,-4.778 1.815,-4.778Zm-6.652,8.218c0.102,1.09 0.127,2.386 0.057,2.88c-0.07,0.493 -0.357,1.511 -0.638,2.262l-0.51,1.365l-0.474,-0.923c-0.26,-0.507 -0.529,-1.54 -0.597,-2.295c-0.116,-1.277 -0.051,-1.51 0.926,-3.322l1.051,-1.949l0.185,1.982Zm-22.044,-1.957c0.056,0.056 0.542,0.855 1.08,1.776c0.855,1.462 0.978,1.859 0.974,3.119c-0.005,1.267 -0.669,3.484 -1.044,3.484c-0.184,0 -1.082,-2.943 -1.135,-3.72c-0.08,-1.186 0.016,-4.768 0.125,-4.659Zm24.817,-4.223c0.052,0.052 -0.375,1.69 -0.951,3.638l-1.047,3.543l-0.14,-4.267l1.021,-1.505c0.561,-0.828 1.064,-1.462 1.117,-1.409Zm-27.797,0.214c0.002,-0.366 1.183,1.178 1.804,2.36c0.474,0.902 0.595,1.485 0.595,2.868c-0,0.955 -0.09,1.634 -0.199,1.508c-0.204,-0.233 -2.202,-6.352 -2.2,-6.736Zm36.791,-22.273c-0.072,-0.254 0.788,0.502 1.912,1.68l2.042,2.141l-0.786,1.56c-0.432,0.858 -0.924,2.046 -1.093,2.64c-0.614,2.154 -0.661,2.028 -1.312,-3.48c-0.202,-1.716 -0.428,-3.335 -0.501,-3.6c-0.072,-0.264 -0.191,-0.687 -0.262,-0.941Zm-45.716,-0.239c0.041,0.029 -0.034,0.468 -0.169,0.976c-0.135,0.508 -0.42,2.542 -0.634,4.519c-0.417,3.843 -0.66,4.772 -0.914,3.502c-0.083,-0.417 -0.6,-1.725 -1.149,-2.906l-0.999,-2.149l1.895,-1.997c1.042,-1.098 1.928,-1.974 1.97,-1.945Zm19.406,-44.296c0.796,0.7 0.874,0.716 3.392,0.716c2.505,0 2.601,-0.02 3.444,-0.715l0.868,-0.715l-0.653,2.575c-0.358,1.417 -1.179,4.33 -1.824,6.476c-0.905,3.008 -1.277,3.933 -1.631,4.045c-0.265,0.084 -0.545,0.008 -0.666,-0.18c-0.438,-0.688 -2.677,-8.191 -3.407,-11.422l-0.339,-1.495l0.816,0.715Zm-3.016,-3.221c0.278,0.252 0.706,0.738 0.951,1.082c0.245,0.343 0.929,2.503 1.521,4.8c0.592,2.296 1.447,5.336 1.901,6.755c0.453,1.419 0.773,2.58 0.71,2.58c-0.063,0 -0.424,-0.22 -0.801,-0.489c-0.378,-0.268 -1.001,-0.598 -1.384,-0.731c-0.621,-0.217 -0.782,-0.506 -1.465,-2.633c-1.479,-4.606 -1.939,-6.838 -1.939,-9.415l-0,-2.406l0.506,0.457Zm13.363,1.871c0.05,1.692 -0.06,2.793 -0.43,4.273c-0.923,3.688 -2.232,7.632 -2.534,7.633c-0.163,0 -0.859,0.379 -1.547,0.842c-0.688,0.462 -1.199,0.705 -1.135,0.54c0.411,-1.079 2.21,-7.351 2.942,-10.262c0.786,-3.128 0.964,-3.572 1.755,-4.392l0.88,-0.913l0.069,2.279Zm-13.869,6.303c-0,-0.868 0.314,-0.184 1.113,2.425c0.435,1.418 0.794,2.698 0.799,2.846c0.005,0.178 -0.667,0.103 -2.017,-0.225l-2.025,-0.494l0.695,-0.791c0.668,-0.761 1.435,-2.771 1.435,-3.761Zm13.74,-0.394c0.099,-0.001 0.18,0.263 0.18,0.588c-0,0.873 0.899,3.119 1.445,3.614c0.261,0.236 0.475,0.512 0.475,0.612c-0,0.226 -3.544,1.08 -3.726,0.897c-0.177,-0.178 1.397,-5.707 1.626,-5.711Zm0.508,-2.403c0.086,0.001 0.614,0.333 1.174,0.739c0.56,0.406 2.557,1.608 4.438,2.671c1.881,1.063 3.419,2 3.417,2.081c-0.003,0.143 -3.626,1.096 -5.63,1.481c-0.872,0.168 -1.014,0.118 -1.682,-0.59c-0.401,-0.425 -0.917,-1.369 -1.147,-2.097c-0.447,-1.418 -0.828,-4.285 -0.57,-4.285Zm-14.634,0.016c0.118,-0.009 0.149,0.607 0.069,1.374c-0.2,1.912 -0.98,4.307 -1.628,4.997c-0.324,0.345 -0.812,0.573 -1.224,0.573c-0.764,0 -5.729,-1.177 -6.011,-1.425c-0.098,-0.087 1.407,-1.07 3.344,-2.184c1.937,-1.114 3.908,-2.316 4.379,-2.672c0.471,-0.355 0.953,-0.653 1.071,-0.663Zm2.345,-28.119c2.045,-1.102 5.428,-1.473 7.761,-0.851c3.392,0.903 5.488,3.15 6.103,6.539c0.315,1.736 0.062,5.14 -0.815,11c-0.435,2.906 -0.731,4.206 -1.039,4.56c-1.674,1.925 -3.607,3.94 -4.218,4.395c-0.63,0.47 -1.016,0.54 -2.961,0.54l-2.236,0l-2.17,-2.245c-1.193,-1.234 -2.326,-2.469 -2.518,-2.742c-0.37,-0.528 -1.33,-6.284 -1.804,-10.816c-0.333,-3.187 -0.074,-5.397 0.845,-7.211c0.572,-1.13 1.979,-2.591 3.052,-3.169Zm-4.885,11.063c0.391,0 0.502,0.373 0.861,2.907c0.226,1.599 0.354,2.965 0.284,3.034c-0.487,0.487 -1.479,-1.767 -1.735,-3.942c-0.174,-1.479 -0.021,-1.999 0.59,-1.999Zm19.035,1.847c0.246,-1.704 0.316,-1.866 0.781,-1.8c0.387,0.056 0.529,0.271 0.588,0.894c0.144,1.507 -0.866,4.656 -1.581,4.93c-0.393,0.151 -0.394,0.186 0.212,-4.024Zm-28.537,151.132c0.094,2.365 0.341,5.929 0.547,7.92c0.361,3.487 0.886,6.335 3.446,18.683c0.651,3.136 1.103,5.751 1.006,5.811c-0.098,0.061 -0.626,0.182 -1.174,0.269l-0.997,0.16l-0.001,-1.171c-0.002,-1.398 -1.035,-8.027 -2.408,-15.459c-1.956,-10.583 -1.952,-10.552 -1.844,-12.952c0.057,-1.253 0.361,-3.468 0.678,-4.92l0.575,-2.64l0.172,4.299Zm39.718,-1.299c0.494,2.545 0.564,3.474 0.463,6.12c-0.084,2.221 -0.366,4.365 -0.977,7.44c-1.155,5.81 -2.407,13.209 -2.904,17.16c-0.224,1.782 -0.441,3.277 -0.483,3.324c-0.042,0.046 -0.516,0.01 -1.053,-0.081c-0.693,-0.117 -0.976,-0.283 -0.976,-0.572c-0,-0.223 0.745,-3.967 1.655,-8.319c2.686,-12.837 3.087,-15.476 3.283,-21.592c0.067,-2.111 0.187,-4.433 0.266,-5.16l0.145,-1.32l0.581,3Zm-38.653,-6.685c0.809,-1.38 0.787,-1.436 1.728,4.429c1.133,7.059 1.923,13.809 2.792,23.856c0.989,11.426 1.002,11.638 0.741,11.817c-0.431,0.294 -0.604,0.208 -0.722,-0.357c-0.062,-0.297 -0.556,-2.7 -1.098,-5.34c-0.542,-2.639 -1.352,-6.527 -1.8,-8.64c-1.541,-7.258 -2.271,-14.183 -2.276,-21.579c-0.002,-2.923 0.034,-3.16 0.635,-4.186Zm35.753,-0.09c0.177,-1.051 0.36,-0.992 1.148,0.368l0.584,1.007l-0.209,6.045c-0.219,6.314 -0.805,11.713 -1.787,16.455c-0.308,1.485 -1.173,5.671 -1.922,9.3c-1.609,7.795 -1.455,7.227 -1.915,7.051c-0.44,-0.169 -0.458,-0.76 -0.125,-4.171c0.136,-1.386 0.57,-6.138 0.966,-10.56c0.919,-10.274 1.602,-15.612 3.26,-25.495Zm-28.833,21.655c-0.102,-1.644 -0.075,-2.436 0.078,-2.28c0.13,0.133 0.872,1.051 1.65,2.04l1.415,1.8l-0.554,2.28c-0.305,1.254 -0.734,3.71 -0.954,5.457c-0.219,1.748 -0.43,3.146 -0.468,3.107c-0.104,-0.107 -0.986,-9.481 -1.167,-12.404Zm22.844,-2.4c0.079,0 0.071,1.269 -0.017,2.82c-0.184,3.228 -0.796,9.853 -1.025,11.1c-0.121,0.661 -0.221,0.264 -0.469,-1.858c-0.174,-1.484 -0.594,-3.939 -0.934,-5.457l-0.619,-2.758l1.206,-1.45c0.664,-0.797 1.321,-1.663 1.46,-1.923c0.139,-0.261 0.318,-0.473 0.398,-0.474Zm-19.835,-14.879c0.071,0.001 0.435,1.919 0.811,4.263c0.579,3.605 0.665,4.725 0.563,7.26c-0.112,2.771 -0.747,6.484 -1.107,6.47c-0.177,-0.008 -2.332,-2.825 -3.006,-3.93c-0.399,-0.655 -0.436,-1.069 -0.314,-3.503c0.085,-1.696 0.336,-3.455 0.649,-4.561c0.533,-1.877 2.184,-5.998 2.404,-5.999Zm16.708,0.49c0.099,-0.487 0.283,-0.229 1.054,1.478c0.514,1.137 1.167,2.915 1.452,3.95c0.356,1.294 0.55,2.818 0.62,4.881l0.101,3l-1.606,2.126c-1.178,1.559 -1.658,2.035 -1.798,1.785c-0.105,-0.188 -0.383,-1.145 -0.618,-2.126c-0.751,-3.14 -0.443,-8.993 0.795,-15.094Zm-17.053,-37.451c0.03,0 0.388,1.377 0.795,3.06c0.935,3.865 1.855,9.366 2.221,13.268l0.283,3.021l-0.683,1.255c-1.299,2.385 -3.565,3.863 -4.382,2.856c-0.499,-0.615 -1.018,-2.653 -1.166,-4.579c-0.133,-1.733 -0.058,-2.369 0.589,-4.974c0.828,-3.336 1.553,-7.453 1.994,-11.327c0.162,-1.418 0.319,-2.579 0.349,-2.58Zm14.487,16.353c0.51,-4.802 2.698,-16.386 3.031,-16.053c0.05,0.051 0.312,1.813 0.582,3.916c0.502,3.913 1.402,8.661 2.041,10.763c0.452,1.489 0.451,4.099 -0.002,6.237c-0.403,1.906 -0.868,2.544 -1.853,2.544c-0.875,0 -2.76,-1.854 -3.555,-3.495c-0.527,-1.089 -0.534,-1.195 -0.244,-3.912Zm-24.571,-30.456c0.054,0.054 -0.017,1.279 -0.158,2.721c-0.349,3.56 -0.352,11.046 -0.005,13.542c0.509,3.674 1.261,7.022 2.371,10.56c0.959,3.057 1.094,3.758 1.112,5.76c0.017,1.834 -0.073,2.464 -0.458,3.219c-0.264,0.516 -0.587,0.948 -0.719,0.96c-0.348,0.031 -2.434,-5.917 -3.402,-9.699c-0.8,-3.122 -0.839,-3.484 -1.076,-9.96c-0.321,-8.749 -0.275,-9.311 1.103,-13.641c0.623,-1.958 1.178,-3.516 1.232,-3.462Zm37.643,0.363c-0.335,-1.601 0.189,-0.387 1.244,2.88c1.108,3.431 1.146,3.648 1.242,7.02c0.054,1.914 -0.018,5.964 -0.159,9c-0.275,5.93 -0.566,7.509 -2.224,12.117c-0.404,1.124 -1.012,2.826 -1.35,3.784c-0.587,1.66 -0.635,1.722 -1.055,1.341c-0.614,-0.555 -0.972,-2.064 -0.96,-4.042c0.007,-1.276 0.274,-2.573 1.113,-5.4c1.915,-6.453 2.769,-11.652 2.768,-16.85c-0,-2.769 -0.371,-8.662 -0.619,-9.85Zm-36.981,-0.935c0.387,-3.27 2.536,-11.134 2.836,-10.377c0.099,0.249 0.462,1.964 0.806,3.812c0.929,4.981 2.331,10.511 3.863,15.24c0.924,2.854 1.349,4.546 1.325,5.28c-0.107,3.286 -1.382,11.185 -2.439,15.1l-0.529,1.963l-2.659,-0.143l-0.576,-1.68c-1.011,-2.95 -2.421,-8.794 -2.838,-11.763c-0.329,-2.343 -0.377,-3.968 -0.262,-8.757c0.078,-3.234 0.291,-7.138 0.473,-8.675Zm33.521,-10.703c-0,-0.436 0.299,0.443 1.325,3.89c1.238,4.158 1.595,6.498 2.051,13.437c0.484,7.365 -0.213,13.015 -2.578,20.891c-0.475,1.584 -0.971,3.015 -1.101,3.18c-0.131,0.167 -0.758,0.3 -1.413,0.3c-1.061,0 -1.201,-0.064 -1.431,-0.66c-0.854,-2.21 -2.352,-10.594 -2.738,-15.32c-0.154,-1.889 -0.123,-2.052 1.17,-6.12c1.777,-5.591 2.591,-8.76 3.746,-14.578c0.533,-2.683 0.969,-4.942 0.969,-5.02Zm-32.712,-9.03c0.093,-0.093 0.637,0.3 1.21,0.873c1.01,1.009 1.103,1.24 3.052,7.508c1.105,3.557 2.983,9.383 4.173,12.947c2.892,8.665 4.055,14.255 4.504,21.642c0.123,2.024 0.06,3.136 -0.281,5l-0.438,2.398l-0.441,-3.12c-0.807,-5.711 -2.06,-11.19 -3.794,-16.59c-2.556,-7.961 -3.793,-12.901 -5.282,-21.09c-1.178,-6.48 -1.381,-7.233 -2.171,-8.022c-0.687,-0.687 -0.867,-1.211 -0.532,-1.546Zm33.45,0.988c1.092,-1.271 1.422,-1.406 1.422,-0.581c-0,0.306 -0.267,0.808 -0.594,1.115c-0.789,0.741 -1.061,1.776 -2.636,10.028c-1.569,8.22 -2.187,10.702 -4.322,17.329c-2.096,6.505 -2.836,9.451 -3.727,14.836l-0.922,5.573c-0.173,1.039 -0.196,0.979 -0.617,-1.589c-0.416,-2.539 -0.418,-2.877 -0.042,-6.902c0.717,-7.672 1.588,-11.47 4.823,-21.029c1.095,-3.234 2.28,-6.852 2.633,-8.04c2.275,-7.657 2.99,-9.586 3.982,-10.74Zm-7.929,12.3c0.097,0 0.251,0.405 0.342,0.9c0.091,0.495 0.411,1.345 0.712,1.888l0.546,0.987l-1.537,4.653c-2.503,7.577 -3.383,11.461 -3.956,17.475c-0.163,1.714 -0.326,3.087 -0.361,3.053c-0.035,-0.035 -0.561,-2.542 -1.17,-5.57c-0.864,-4.294 -1.136,-6.22 -1.235,-8.75l-0.128,-3.244l0.652,-0.349c1.065,-0.57 1.649,-1.455 3.104,-4.712c2.523,-5.644 2.851,-6.331 3.031,-6.331Zm-15.666,1.081c0.337,0.659 1.252,2.657 2.034,4.439c1.743,3.976 2.143,4.638 3.195,5.288c0.456,0.281 0.894,0.774 0.975,1.095c0.274,1.091 -0.413,6.685 -1.455,11.857c-0.572,2.838 -1.098,4.998 -1.168,4.8c-0.071,-0.198 -0.2,-1.278 -0.287,-2.4c-0.398,-5.109 -1.731,-11.059 -4.071,-18.159l-1.357,-4.119l0.47,-0.922c0.259,-0.507 0.601,-1.408 0.761,-2.001l0.29,-1.078l0.613,1.2Zm-18.141,-25.081c0.098,0 0.345,0.56 0.548,1.244c0.763,2.568 0.825,2.369 -4.129,13.156c-1.182,2.574 -2.608,5.99 -3.168,7.591l-1.018,2.911l-0.844,-0.259c-0.464,-0.143 -0.889,-0.379 -0.945,-0.526c-0.136,-0.354 3.397,-9.672 6.277,-16.557c1.271,-3.035 2.488,-5.979 2.705,-6.54c0.218,-0.56 0.476,-1.019 0.574,-1.02Zm50.729,1.785c0.406,-1.725 0.642,-2.114 0.901,-1.485c0.068,0.166 1.382,3.318 2.919,7.005c3.194,7.658 4.071,9.871 5.548,14.002l1.055,2.947l-0.567,0.216c-1.21,0.46 -1.425,0.402 -1.74,-0.47c-0.167,-0.462 -0.702,-1.974 -1.188,-3.36c-0.487,-1.386 -2.157,-5.244 -3.711,-8.574c-3.76,-8.056 -3.749,-8.021 -3.217,-10.281Zm2.948,-4.689c0.353,0.253 0.935,0.77 1.294,1.149c0.418,0.44 0.909,1.507 1.363,2.962c2.421,7.762 5.922,18.858 6.423,20.359c0.324,0.971 0.556,1.792 0.515,1.824c-0.041,0.033 -0.431,0.179 -0.865,0.326c-0.604,0.204 -0.815,0.198 -0.891,-0.024c-1.882,-5.469 -3.641,-9.943 -8.153,-20.738c-1.723,-4.122 -1.775,-4.477 -0.831,-5.677l0.505,-0.642l0.64,0.461Zm-55.286,-0.387c0.136,0.04 0.489,0.556 0.785,1.147l0.54,1.074l-1.818,4.315c-2.904,6.895 -4.808,11.633 -6.496,16.167c-0.866,2.325 -1.619,4.302 -1.675,4.394c-0.126,0.208 -1.529,-0.267 -1.529,-0.517c-0,-0.102 1.306,-4.33 2.903,-9.397c1.597,-5.066 3.282,-10.454 3.744,-11.972c0.77,-2.527 0.944,-2.867 2.07,-4.022c0.677,-0.694 1.341,-1.229 1.476,-1.189Zm-4.913,-5.825c0.066,-0.001 0.483,1.52 0.928,3.379c0.616,2.578 0.771,3.655 0.654,4.539c-0.085,0.638 -1.109,4.165 -2.277,7.839c-1.167,3.674 -2.804,8.873 -3.636,11.555c-1.506,4.855 -1.515,4.875 -2.13,4.72c-0.34,-0.085 -0.646,-0.183 -0.681,-0.217c-0.035,-0.035 0.151,-1.105 0.413,-2.378c0.463,-2.251 1.188,-7.332 2.162,-15.161c0.57,-4.579 0.979,-6.285 2.157,-9l1.588,-3.657c0.386,-0.89 0.756,-1.618 0.822,-1.619Zm64.508,-0.136c0.058,0.059 0.48,0.949 0.938,1.979c2.717,6.109 2.914,6.866 3.911,15.073c0.401,3.3 1.063,7.978 1.47,10.396c0.408,2.418 0.703,4.429 0.657,4.47c-0.047,0.041 -0.319,0.147 -0.607,0.235c-0.49,0.151 -0.599,-0.071 -1.723,-3.51c-2.984,-9.127 -6.087,-19.379 -6.206,-20.506c-0.095,-0.903 0.082,-2.175 0.662,-4.738c0.436,-1.927 0.84,-3.457 0.898,-3.399Zm-11.942,-16.188c0.342,-3.883 0.263,-3.744 1.692,-2.966c0.651,0.354 1.613,1.077 2.138,1.608c1.684,1.701 3.729,6.301 4.815,10.834c0.706,2.943 0.787,5.533 0.294,9.351l-0.433,3.347l-2.461,-2.266c-3.554,-3.271 -4.381,-4.689 -5.702,-9.771c-0.665,-2.56 -0.76,-5.384 -0.343,-10.137Zm5.45,-0.591c0.365,0.236 1.263,0.887 1.994,1.446c1.774,1.356 1.831,1.438 2.615,3.746c1.579,4.645 1.923,9.039 0.994,12.679c-0.286,1.122 -0.748,2.738 -1.026,3.59c-0.462,1.416 -0.525,1.499 -0.729,0.96c-0.148,-0.393 -0.089,-1.61 0.179,-3.65c0.093,-0.711 0.159,-1.396 0.198,-2.067c0.012,-0.638 0.018,-1.268 0.016,-1.833c-0.001,-0.275 -0.002,-0.532 -0.005,-0.773c-0.088,-1.671 -0.362,-3.341 -0.833,-5.195c-0.692,-2.723 -2.265,-6.654 -3.245,-8.109l-0.823,-1.223l0.665,0.429Zm-51.486,-0.116c0.093,-0.007 -0.249,0.77 -0.761,1.727c-1.224,2.288 -2.775,6.93 -3.267,9.78c-0.39,2.258 -0.381,4.191 0.041,9.148c0.191,2.247 -0.184,2.711 -0.708,0.875c-1.608,-5.631 -1.664,-5.952 -1.522,-8.703c0.139,-2.687 0.828,-5.903 1.84,-8.582c0.457,-1.208 0.755,-1.562 2.365,-2.807c1.013,-0.784 1.918,-1.431 2.012,-1.438Zm0.991,-0.11c0.839,-1.065 3.507,-2.89 3.799,-2.598c0.106,0.106 0.301,1.215 0.432,2.464c0.132,1.249 0.241,3.838 0.244,5.753c0.003,2.941 -0.085,3.798 -0.566,5.52c-0.865,3.095 -1.739,5.209 -2.684,6.497c-0.904,1.232 -4.118,4.327 -5.055,4.921l-0.204,0.197l-0.014,-0.097c-0.314,-0 -0.485,-1.315 -0.698,-5.497c-0.062,-0.747 -0.089,-1.372 -0.083,-1.927c-0.044,-1.678 0.058,-2.577 0.413,-4.295c0.815,-3.948 2.818,-8.91 4.416,-10.938Zm31.873,30.613c0.68,-0.016 1.129,0.008 1.399,0.079l0.127,0.005l-0.002,0.035c0.105,0.043 0.167,0.098 0.194,0.167c0.302,0.788 -0.549,6.075 -1.435,8.908c-0.684,2.186 -4.247,11.007 -4.779,11.83c-0.04,0.061 -0.08,0.115 -0.121,0.163l-0.057,0.137l-0.084,0c-0.238,0.186 -0.569,0.24 -1.2,0.24l-1.113,0l0.144,-9.463c0.054,-3.605 0.092,-5.938 0.173,-7.496l-0,-1.905l0.247,-0.382c0.185,-0.797 0.47,-1.077 0.937,-1.5c0.534,-0.483 2.329,-0.747 5.57,-0.818Zm-16.014,2.435c-0.247,-2.658 -0.374,-2.563 3.204,-2.37c2.33,0.125 3.198,0.264 3.656,0.586c0.33,0.232 0.844,0.899 1.142,1.484c0.1,0.194 0.18,0.354 0.246,0.543l0.052,0.089l-0,0.079c0.239,0.874 0.23,2.545 0.182,9.475l-0.062,9.123l-0.981,0.072c-0.547,0.04 -0.971,-0.03 -1.184,-0.192l-0.037,0l-0.024,-0.055c-0.004,-0.005 -0.008,-0.009 -0.012,-0.014c-0.48,-0.578 -4.078,-9.432 -4.825,-11.872c-0.771,-2.52 -1.105,-4.229 -1.357,-6.948Zm9.326,-8.512c0.175,-2.558 0.317,-2.697 2.569,-2.517c0.993,0.079 2.537,0.35 3.433,0.601c2.62,0.736 3.056,1.467 2.592,4.345c-0.375,2.331 -0.557,2.441 -4.274,2.592c-3.006,0.122 -3.123,0.108 -3.617,-0.422c-0.643,-0.691 -0.87,-2.172 -0.703,-4.599Zm-2.9,-2.571c0.91,-0.023 1.198,0.075 1.5,0.506c0.28,0.399 0.374,1.157 0.374,3.012c-0,2.8 -0.332,3.787 -1.358,4.045c-0.875,0.22 -5.707,-0.061 -6.275,-0.365c-0.572,-0.307 -1.007,-1.924 -1.007,-3.743c-0,-1.822 0.538,-2.349 2.905,-2.849l2.255,-0.477c0.264,-0.056 0.987,-0.114 1.606,-0.129Zm3.663,-9.387c0.634,-0.187 1.574,0.081 2.95,0.829c1.677,0.913 4.068,2.894 4.5,3.729c0.464,0.897 0.48,3.586 0.025,4.208c-0.329,0.45 -0.391,0.449 -3.42,-0.098c-1.696,-0.306 -3.351,-0.681 -3.677,-0.833c-0.989,-0.46 -1.2,-1.231 -1.204,-4.402c-0.003,-2.41 0.03,-2.875 0.364,-3.174c0.011,-0.055 0.022,-0.089 0.033,-0.1c0.09,-0.09 0.237,-0.142 0.429,-0.159Zm-4.051,0.116c1.158,-0.413 1.222,-0.416 1.798,-0.108c0.421,0.226 0.464,0.527 0.46,3.3c-0.001,1.678 -0.069,3.299 -0.15,3.601c-0.22,0.819 -1.147,1.178 -4.522,1.748c-3.693,0.624 -3.727,0.608 -3.906,-1.894l-0.12,-1.679l1.136,-1.214c1.319,-1.41 3.948,-3.271 5.304,-3.754Zm0.604,-6.584c0.051,-0.002 0.111,0.009 0.176,0.03c0.366,0.015 0.596,0.117 0.748,0.301c0.157,0.189 0.388,1.069 0.513,1.956c0.141,0.991 0.204,1.496 -0.142,1.965l0.003,0.139l-0.285,0.162c-0.423,0.373 -1.142,0.786 -2.322,1.456c-1.206,0.685 -2.818,1.734 -3.58,2.333c-0.91,0.713 -1.469,1.006 -1.624,0.851c-0.358,-0.358 -0.941,-3.391 -0.945,-4.919c-0.006,-1.937 0.311,-2.22 3.716,-3.319c1.57,-0.507 2.629,-0.796 3.349,-0.891c0.172,-0.039 0.307,-0.061 0.393,-0.064Zm3.101,1.173c0.398,-1.475 0.801,-1.494 4.806,-0.232c1.771,0.559 3.207,1.155 3.464,1.439c0.386,0.426 0.422,0.771 0.296,2.836c-0.151,2.483 -0.427,3.564 -0.969,3.788l-0.047,0.09l-0.14,-0.095c-0.321,-0.083 -0.955,-0.437 -1.58,-0.895c-0.777,-0.57 -2.349,-1.56 -3.493,-2.2c-1.145,-0.64 -2.211,-1.32 -2.37,-1.512c-0.334,-0.403 -0.319,-1.911 0.033,-3.219Zm-17.093,12.254c0.105,0 0.607,0.546 1.115,1.212c0.508,0.667 1.496,1.721 2.194,2.344c1.44,1.283 1.78,1.98 1.78,3.64c0,1.371 -0.173,1.924 -0.603,1.924c-0.491,0 -2.905,-2.068 -3.834,-3.285c-0.14,-0.184 -0.256,-0.338 -0.354,-0.478l-0.249,-0.245l0.001,-0.172c-0.236,-0.5 -0.241,-1.048 -0.241,-2.574c0,-1.301 0.086,-2.365 0.191,-2.366Zm32.355,0.915c0.056,0.337 0.094,0.952 0.094,1.631c0,0.316 -0.011,0.618 -0.032,0.9c-0.005,1.053 -0.118,1.421 -0.466,1.984c-0.535,0.865 -3.653,3.69 -4.073,3.69c-0.494,0 -0.769,-1.161 -0.598,-2.528c0.166,-1.326 0.242,-1.442 2.61,-3.946l2.439,-2.58l0.026,0.849Zm-31.923,-4.792c0.171,-0.277 0.517,-0.255 0.703,0.045c0.084,0.137 0.989,0.834 2.01,1.55c1.022,0.716 1.986,1.581 2.141,1.923c0.35,0.767 0.371,3.106 0.035,3.735c-0.041,0.076 -0.083,0.142 -0.127,0.198c-0.012,0.023 -0.025,0.042 -0.037,0.055c-0.028,0.027 -0.057,0.05 -0.087,0.069c-0.421,0.327 -1.063,-0.113 -2.426,-1.551c-2.011,-2.122 -2.711,-3.48 -2.494,-4.838c0.086,-0.541 0.213,-1.074 0.282,-1.186Zm31.332,-0.193c0.085,-0.006 0.219,0.161 0.3,0.37c0.272,0.71 0.146,2.305 -0.247,3.134c-0.638,1.345 -3.668,4.443 -4.263,4.358c-0.294,-0.042 -0.42,-0.132 -0.49,-0.661c-0.134,-0.507 -0.17,-1.3 -0.104,-2.047c-0.026,-1.24 0.072,-1.428 0.62,-2.029c0.638,-0.699 3.859,-3.106 4.184,-3.125Zm-31.592,-2.396c-0.167,-0.988 0.036,-2.496 0.319,-2.367c0.087,0.04 1.093,0.589 2.235,1.22c1.143,0.631 2.148,1.332 2.235,1.557c0.354,0.925 0.412,3.296 0.09,3.719c-0.299,0.393 -0.431,0.349 -1.903,-0.639c-1.974,-1.325 -2.768,-2.257 -2.976,-3.49Zm27.305,0.472c0.305,-0.602 4.206,-2.94 4.552,-2.728c0.099,0.061 0.18,0.628 0.18,1.261c0,1.751 -0.383,2.53 -1.758,3.574c-1.585,1.204 -2.415,1.76 -2.842,1.668c-0.06,0.005 -0.103,-0.004 -0.129,-0.03c-0.008,-0.008 -0.015,-0.021 -0.022,-0.04c-0.237,-0.192 -0.287,-0.727 -0.285,-1.604c0.002,-0.828 0.139,-1.774 0.304,-2.101Zm4.989,-8.156c0.075,-0.005 0.046,0.774 -0.064,1.73c-0.11,0.957 -0.319,2.035 -0.464,2.397c-0.279,0.694 -1.897,1.815 -3.409,2.362c-0.782,0.282 -0.937,0.279 -1.129,-0.026c-0.339,-0.536 -0.274,-1.795 0.148,-2.849c0.412,-1.031 1.551,-1.678 3.046,-1.732c0.436,-0.015 0.584,-0.077 0.339,-0.14c-0.367,-0.095 -0.29,-0.241 0.48,-0.923c0.504,-0.444 0.978,-0.813 1.053,-0.819Zm-32.715,-0.01c0.047,0 0.514,0.344 1.037,0.764c0.68,0.546 0.863,0.818 0.645,0.956c-0.198,0.126 -0.087,0.194 0.321,0.197c0.82,0.004 2.149,0.459 2.676,0.915c0.891,0.771 1.075,3.504 0.257,3.818c-0.443,0.17 -3.19,-1.195 -3.876,-1.925c-0.402,-0.428 -0.618,-1.108 -0.844,-2.65c-0.166,-1.141 -0.264,-2.074 -0.216,-2.075Zm-3.439,-5.04c0.072,0 0.471,0.675 0.888,1.5c0.416,0.825 1.011,1.834 1.323,2.243c0.359,0.471 0.567,1.067 0.567,1.63c-0,0.488 0.164,1.684 0.365,2.658c0.265,1.283 0.304,2.046 0.14,2.774c-0.16,0.712 -0.133,1.36 0.091,2.226c0.207,0.798 0.242,1.418 0.1,1.79c-0.119,0.314 -0.225,1.13 -0.235,1.815l-0.018,1.244l-0.839,-2.4c-1.979,-5.663 -2.024,-5.884 -2.155,-10.668c-0.066,-2.435 -0.174,-4.514 -0.239,-4.62c-0.066,-0.106 -0.06,-0.192 0.012,-0.192Zm39.573,0.036c0.025,0.046 -0.011,2.136 -0.08,4.644l-0.124,4.56l-2.87,8.64l-0.169,-2.035c-0.094,-1.129 -0.068,-2.492 0.06,-3.06c0.148,-0.664 0.145,-1.401 -0.01,-2.093c-0.153,-0.681 -0.157,-1.285 -0.012,-1.666c0.124,-0.329 0.303,-1.441 0.395,-2.472c0.117,-1.301 0.332,-2.133 0.702,-2.723c0.294,-0.466 0.878,-1.53 1.299,-2.364c0.421,-0.833 0.785,-1.477 0.809,-1.431Zm-30.915,-16.343c0.264,-0.009 2.136,0.336 4.162,0.765l3.682,0.782l2.836,2.651l-0,6.922c-0,6.698 -0.017,6.952 -0.531,7.866c-0.292,0.52 -0.859,1.144 -1.26,1.388c-0.867,0.527 -5.32,1.803 -7.7,2.207c-1.612,0.274 -1.75,0.259 -3,-0.319c-1.782,-0.824 -3.79,-2.385 -4.578,-3.558c-0.919,-1.368 -2.897,-6.149 -2.917,-7.047c-0.021,-1.006 1.911,-5.776 2.819,-6.959c0.845,-1.101 5.78,-4.675 6.487,-4.698Zm19.44,0.474c1.49,-0.333 2.262,-0.501 2.962,-0.377c0.022,-0 0.04,0.001 0.051,0.003c0.016,0.002 0.038,0.009 0.066,0.021c0.683,0.155 1.331,0.599 2.561,1.452c3.8,2.637 4.294,3.283 6.001,7.843c0.735,1.964 0.768,2.179 0.487,3.12c-0.418,1.398 -2.297,5.379 -3.057,6.48c-0.64,0.925 -3.373,2.911 -4.845,3.52c-0.99,0.41 -2.433,0.203 -6.593,-0.95c-2.939,-0.814 -3.974,-1.346 -4.811,-2.476c-0.478,-0.643 -0.506,-1.013 -0.573,-7.424c-0.049,-4.697 0.013,-6.95 0.206,-7.414c0.482,-1.166 2.7,-2.778 4.254,-3.092c0.754,-0.153 2.235,-0.47 3.291,-0.706Zm10.483,-2.629c0.222,-0.01 1.302,0.313 2.4,0.717c3.853,1.417 5.331,2.674 6.898,5.865c1.514,3.084 1.771,4.05 1.884,7.104c0.09,2.424 -0.228,6.099 -0.556,6.427c-0.061,0.061 -0.354,-0.104 -0.65,-0.367c-0.297,-0.263 -1.619,-1.246 -2.939,-2.185c-3.668,-2.608 -4.203,-3.259 -5.667,-6.899c-0.691,-1.716 -1.509,-3.505 -1.818,-3.976c-0.309,-0.471 -1.44,-1.497 -2.513,-2.28c-2.903,-2.118 -3.515,-2.682 -3.082,-2.845c0.714,-0.269 5.649,-1.543 6.043,-1.561Zm-42.897,2.02c1.433,-0.837 5.193,-2.055 5.894,-1.909c0.33,0.068 1.715,0.418 3.079,0.778c1.363,0.359 2.497,0.761 2.52,0.893c0.003,0.019 -0.017,0.052 -0.055,0.1c0.011,0.037 -0.005,0.072 -0.044,0.105c-0.014,0.012 -0.095,0.073 -0.229,0.173c-0.436,0.405 -1.263,1.076 -2.215,1.785c-1.42,1.057 -2.807,2.29 -3.081,2.741c-0.274,0.45 -0.984,2.015 -1.579,3.478c-1.495,3.678 -2.005,4.476 -3.732,5.831c-2.154,1.689 -5.719,4.215 -5.806,4.113c-0.214,-0.248 -0.618,-4.094 -0.618,-5.881c-0,-2.56 0.459,-4.376 1.834,-7.245c1.161,-2.424 2.494,-4.065 4.032,-4.962Z" style="fill:#434343;"/><path id="no_muscles_front" d="M58.074,199.235c0.595,-2.189 0.698,-2.26 2.341,-1.636c0.498,0.189 1.449,0.453 2.114,0.587c2.251,0.451 2.354,0.535 2.822,2.294c0.403,1.512 0.404,1.68 0.023,3.04l-0.404,1.44l2.135,3.159c2.477,3.663 2.523,3.757 2.284,4.65c-0.157,0.587 -0.407,0.744 -1.905,1.2c-2.513,0.764 -3.605,0.908 -4.254,0.561c-0.476,-0.255 -0.648,-0.224 -1.205,0.214c-1.176,0.925 -2.259,0.638 -3.308,-0.874c-0.565,-0.817 -0.663,-1.237 -0.775,-3.315c-0.07,-1.309 -0.033,-3.103 0.081,-3.986c0.157,-1.211 0.12,-1.92 -0.147,-2.88c-0.464,-1.662 -0.445,-2.094 0.198,-4.454Zm-20.241,-2.127c0.018,0.015 0.333,1.094 0.701,2.398c0.624,2.211 0.647,2.446 0.339,3.48c-0.226,0.761 -0.333,2.517 -0.341,5.585l-0.012,4.475l-0.745,0.925c-1.055,1.309 -1.812,1.527 -3.015,0.868c-0.754,-0.413 -1.049,-0.468 -1.387,-0.257c-0.475,0.297 -2.124,0.043 -4.693,-0.723c-1.397,-0.416 -1.442,-0.457 -1.514,-1.317c-0.066,-0.779 0.206,-1.306 2.229,-4.316l2.303,-3.428l-0.369,-0.884c-0.472,-1.13 -0.465,-1.999 0.028,-3.773l0.396,-1.427l1.344,-0.264c0.738,-0.146 2.099,-0.514 3.023,-0.817c0.923,-0.304 1.693,-0.539 1.713,-0.525Zm27.11,-46.173c0.482,-2.296 1.622,-5.992 1.702,-5.52c0.034,0.199 0.226,2.156 0.428,4.35c0.202,2.194 0.367,4.784 0.367,5.756l-0,1.766l-0.618,-0.91c-0.986,-1.45 -1.329,-1.144 -1.836,1.639c-1.446,7.922 -2.641,18.066 -3.809,32.333l-0.545,6.653l-0.616,-0.133c-0.339,-0.074 -0.751,-0.176 -0.916,-0.226c-0.408,-0.126 -0.389,-2.464 0.046,-5.764c0.665,-5.037 1.133,-11.537 1.157,-16.064c0.027,-5.067 -0.265,-7.008 -1.489,-9.898c-1.692,-3.996 -2.201,-5.418 -2.984,-8.342c-0.768,-2.869 -1.732,-9.17 -1.548,-10.118c0.191,-0.985 1.491,1.818 3.188,6.878c1.218,3.631 1.978,5.538 2.318,5.82c0.707,0.587 3.107,0.586 3.639,-0.001c0.25,-0.276 0.513,-1.459 0.76,-3.42c0.208,-1.649 0.548,-3.809 0.756,-4.799Zm-35.021,-5.52c0.049,0 0.205,0.297 0.345,0.66c0.663,1.717 1.675,6.241 2.013,9.005c0.416,3.398 0.615,4.118 1.201,4.342c0.688,0.264 2.889,0.167 3.309,-0.147c0.222,-0.166 1.236,-2.77 2.266,-5.82c1.877,-5.557 2.985,-7.996 3.139,-6.91c0.162,1.134 -0.723,7.246 -1.38,9.538c-0.381,1.327 -0.769,2.79 -0.862,3.252c-0.094,0.463 -0.706,2.017 -1.36,3.454c-0.655,1.437 -1.415,3.435 -1.689,4.44c-1.002,3.666 -0.781,13.387 0.546,24.024c0.656,5.259 0.66,5.207 -0.417,5.505c-0.487,0.134 -0.934,0.197 -0.992,0.138c-0.058,-0.058 -0.353,-2.998 -0.655,-6.533c-1.44,-16.846 -2.325,-24.373 -3.853,-32.768c-0.428,-2.347 -0.8,-2.657 -1.653,-1.38c-0.264,0.396 -0.534,0.719 -0.6,0.72c-0.132,0.001 0.091,-5.499 0.373,-9.18c0.099,-1.286 0.22,-2.339 0.269,-2.34Zm33.324,-2.296c0.007,2.164 0.345,3.397 1.176,4.293l0.559,0.605l-0.793,3.518l-1.194,0.421c-0.89,0.313 -1.591,0.384 -2.754,0.279c-1.144,-0.104 -1.491,-0.07 -1.302,0.126c0.412,0.426 2.612,0.584 3.838,0.275c0.617,-0.155 1.156,-0.248 1.198,-0.207c0.177,0.178 -0.642,6.05 -0.885,6.343c-0.34,0.41 -2.385,0.426 -2.903,0.023c-0.212,-0.165 -1.146,-2.547 -2.077,-5.293c-1.565,-4.619 -1.652,-4.98 -1.16,-4.808c2.202,0.77 3.139,-0.601 3.55,-5.198c0.112,-1.249 0.208,-2.272 0.214,-2.281l1.268,-0.016l1.259,-0.017l0.006,1.937Zm-27.18,0.376c0.151,2.659 0.727,4.416 1.679,5.126c0.58,0.432 0.762,0.459 1.424,0.209c0.418,-0.157 0.787,-0.259 0.821,-0.225c0.134,0.137 -3.204,9.761 -3.516,10.137c-0.261,0.314 -0.618,0.381 -1.604,0.299c-0.698,-0.058 -1.344,-0.18 -1.436,-0.271c-0.092,-0.093 -0.342,-1.576 -0.557,-3.298l-0.391,-3.13l0.497,0.14c1.123,0.316 2.564,0.424 3.598,0.269c1.591,-0.239 1.41,-0.689 -0.196,-0.489c-0.902,0.113 -1.698,0.045 -2.629,-0.226c-1.222,-0.355 -1.357,-0.464 -1.588,-1.285c-0.571,-2.027 -0.581,-2.686 -0.048,-3.253c0.792,-0.843 1.24,-2.452 1.24,-4.453l-0,-1.83l2.577,0l0.129,2.28Zm51.57,-40.777c0.086,-0.012 0.734,0.348 1.44,0.802c2.205,1.415 2.945,2.191 4.641,4.863c0.905,1.426 1.951,3.057 2.324,3.624c0.772,1.173 0.844,1.614 0.299,1.823c-0.763,0.292 -1.123,0.119 -2.52,-1.213c-0.783,-0.747 -1.498,-1.284 -1.589,-1.193c-0.091,0.092 0.03,1.755 0.268,3.698c0.813,6.639 0.844,7.026 0.617,7.625c-0.156,0.41 -0.408,0.588 -0.83,0.588c-0.333,0 -0.606,-0.081 -0.606,-0.18c-0,-0.48 -1.447,-8.307 -1.555,-8.415c-0.424,-0.423 -0.324,0.717 0.448,5.107c0.477,2.715 0.867,5.034 0.867,5.156c-0,0.314 -0.705,0.973 -1.037,0.968c-0.742,-0.009 -0.966,-0.647 -1.847,-5.267c-0.51,-2.673 -0.988,-4.921 -1.062,-4.994c-0.405,-0.406 -0.326,0.52 0.349,4.122c0.801,4.275 0.836,5.254 0.192,5.376c-0.695,0.132 -1.106,-0.906 -1.956,-4.946c-0.453,-2.151 -0.89,-3.978 -0.971,-4.059c-0.417,-0.416 -0.371,0.405 0.171,3.089c0.329,1.627 0.547,3.04 0.485,3.141c-0.202,0.327 -0.961,0.192 -1.339,-0.238c-0.204,-0.231 -0.756,-1.986 -1.226,-3.9c-1.95,-7.929 -2.108,-9.176 -1.516,-12l0.277,-1.32l2.76,-1.117c1.518,-0.615 2.83,-1.128 2.916,-1.14Zm-82.999,3.264c0.839,-1.088 3.972,-3.275 4.483,-3.13c0.198,0.057 1.386,0.493 2.64,0.969c1.254,0.477 2.459,1.02 2.678,1.207c0.254,0.218 0.508,1.088 0.705,2.408c0.27,1.815 0.257,2.316 -0.107,4.123c-0.751,3.73 -2.355,9.967 -2.704,10.516c-0.344,0.541 -1.147,0.728 -1.396,0.326c-0.073,-0.118 0.137,-1.54 0.467,-3.159c0.55,-2.704 0.601,-3.431 0.211,-3.04c-0.081,0.08 -0.55,1.983 -1.042,4.229c-0.86,3.923 -1.195,4.828 -1.781,4.82c-0.88,-0.012 -0.882,-0.328 -0.04,-4.919c0.458,-2.493 0.78,-4.586 0.717,-4.65c-0.318,-0.317 -0.602,0.715 -1.339,4.878c-0.478,2.699 -0.957,4.733 -1.181,5.01c-0.479,0.592 -1.37,0.359 -1.563,-0.408c-0.074,-0.298 0.257,-2.73 0.737,-5.406c0.781,-4.352 0.882,-5.424 0.473,-5.016c-0.068,0.069 -0.448,1.896 -0.842,4.06c-0.853,4.675 -0.809,4.535 -1.431,4.535c-1.022,0 -1.065,-0.8 -0.349,-6.456c0.369,-2.915 0.599,-5.372 0.511,-5.46c-0.089,-0.088 -0.801,0.451 -1.584,1.198c-0.784,0.747 -1.548,1.358 -1.698,1.358c-0.431,0 -1.202,-0.472 -1.202,-0.737c0,-0.278 3.597,-5.907 4.637,-7.256Zm27.283,-27.28c0,-0.06 0.622,0.487 1.38,1.218c0.759,0.732 1.95,1.794 2.646,2.361c0.697,0.566 1.369,1.221 1.494,1.454c0.125,0.234 0.614,2.676 1.087,5.426c0.825,4.793 1.304,6.701 0.993,3.953c-0.185,-1.637 0.102,-1.345 0.809,0.821c1.123,3.443 4.579,11.356 5.105,11.691c0.392,0.249 5.248,0.231 5.646,-0.021c0.471,-0.299 4.385,-9.266 5.46,-12.51c0.418,-1.262 0.444,-1.288 0.578,-0.6c0.102,0.526 0.289,-0.154 0.694,-2.52c1.068,-6.238 1.099,-6.331 2.506,-7.474c0.683,-0.556 1.911,-1.656 2.728,-2.447c1.423,-1.376 1.491,-1.412 1.623,-0.858c0.454,1.907 0.627,3.344 0.765,6.357l0.156,3.377l-2.357,2.456c-2.761,2.876 -3.905,3.827 -5.103,4.239c-0.48,0.165 -0.913,0.419 -0.962,0.565c-0.146,0.439 0.921,0.299 1.784,-0.234c0.444,-0.275 0.808,-0.419 0.808,-0.321c-0,0.099 -0.582,1.16 -1.294,2.359c-1.638,2.761 -3.094,5.677 -5.338,10.692c-2.104,4.703 -2.608,5.32 -4.472,5.475c-1.383,0.114 -2.338,-0.22 -3.129,-1.094c-0.238,-0.263 -1.061,-1.921 -1.829,-3.685c-2.116,-4.856 -3.904,-8.469 -5.504,-11.121c-0.795,-1.317 -1.414,-2.426 -1.375,-2.465c0.038,-0.038 0.54,0.141 1.115,0.399c0.999,0.447 1.426,0.459 1.426,0.039c-0,-0.107 -0.513,-0.385 -1.14,-0.618c-0.894,-0.334 -1.806,-1.104 -4.228,-3.57l-3.087,-3.145l0.171,-3.123c0.094,-1.718 0.322,-3.987 0.507,-5.043c0.185,-1.056 0.337,-1.971 0.337,-2.033Zm-0.853,13.47c0.32,0.37 0.715,1.363 0.942,2.37c0.215,0.952 0.391,2.198 0.391,2.768c-0,0.597 -0.759,3.555 -1.794,6.99c-2.408,7.993 -3.226,10.422 -3.237,9.618c-0.037,-2.662 2.313,-20.198 2.918,-21.783l0.23,-0.6l0.55,0.637Zm34.93,-0.517c0.09,0.001 0.396,1.108 0.681,2.46c0.74,3.511 1.161,6.47 1.843,12.953c0.755,7.17 0.755,7.866 0.003,5.467c-0.31,-0.99 -1.28,-4.068 -2.155,-6.84c-2.019,-6.39 -2.369,-7.872 -2.187,-9.262c0.337,-2.573 1.175,-4.778 1.815,-4.778Zm-6.652,8.218c0.102,1.09 0.127,2.386 0.057,2.88c-0.07,0.493 -0.357,1.511 -0.638,2.262l-0.51,1.365l-0.474,-0.923c-0.26,-0.507 -0.529,-1.54 -0.597,-2.295c-0.116,-1.277 -0.051,-1.51 0.926,-3.322l1.051,-1.949l0.185,1.982Zm-22.044,-1.957c0.056,0.056 0.542,0.855 1.08,1.776c0.855,1.462 0.978,1.859 0.974,3.119c-0.005,1.267 -0.669,3.484 -1.044,3.484c-0.184,0 -1.082,-2.943 -1.135,-3.72c-0.08,-1.186 0.016,-4.768 0.125,-4.659Zm24.817,-4.223c0.052,0.052 -0.375,1.69 -0.951,3.638l-1.047,3.543l-0.14,-4.267l1.021,-1.505c0.561,-0.828 1.064,-1.462 1.117,-1.409Zm-27.797,0.214c0.002,-0.366 1.183,1.178 1.804,2.36c0.474,0.902 0.595,1.485 0.595,2.868c-0,0.955 -0.09,1.634 -0.199,1.508c-0.204,-0.233 -2.202,-6.352 -2.2,-6.736Zm36.791,-22.273c-0.072,-0.254 0.788,0.502 1.912,1.68l2.042,2.141l-0.786,1.56c-0.432,0.858 -0.924,2.046 -1.093,2.64c-0.614,2.154 -0.661,2.028 -1.312,-3.48c-0.202,-1.716 -0.428,-3.335 -0.501,-3.6c-0.072,-0.264 -0.191,-0.687 -0.262,-0.941Zm-45.716,-0.239c0.041,0.029 -0.034,0.468 -0.169,0.976c-0.135,0.508 -0.42,2.542 -0.634,4.519c-0.417,3.843 -0.66,4.772 -0.914,3.502c-0.083,-0.417 -0.6,-1.725 -1.149,-2.906l-0.999,-2.149l1.895,-1.997c1.042,-1.098 1.928,-1.974 1.97,-1.945Zm19.406,-44.296c0.796,0.7 0.874,0.716 3.392,0.716c2.505,0 2.601,-0.02 3.444,-0.715l0.868,-0.715l-0.653,2.575c-0.358,1.417 -1.179,4.33 -1.824,6.476c-0.905,3.008 -1.277,3.933 -1.631,4.045c-0.265,0.084 -0.545,0.008 -0.666,-0.18c-0.438,-0.688 -2.677,-8.191 -3.407,-11.422l-0.339,-1.495l0.816,0.715Zm-3.016,-3.221c0.278,0.252 0.706,0.738 0.951,1.082c0.245,0.343 0.929,2.503 1.521,4.8c0.592,2.296 1.447,5.336 1.901,6.755c0.453,1.419 0.773,2.58 0.71,2.58c-0.063,0 -0.424,-0.22 -0.801,-0.489c-0.378,-0.268 -1.001,-0.598 -1.384,-0.731c-0.621,-0.217 -0.782,-0.506 -1.465,-2.633c-1.479,-4.606 -1.939,-6.838 -1.939,-9.415l-0,-2.406l0.506,0.457Zm13.363,1.871c0.05,1.692 -0.06,2.793 -0.43,4.273c-0.923,3.688 -2.232,7.632 -2.534,7.633c-0.163,0 -0.859,0.379 -1.547,0.842c-0.688,0.462 -1.199,0.705 -1.135,0.54c0.411,-1.079 2.21,-7.351 2.942,-10.262c0.786,-3.128 0.964,-3.572 1.755,-4.392l0.88,-0.913l0.069,2.279Zm-13.869,6.303c-0,-0.868 0.314,-0.184 1.113,2.425c0.435,1.418 0.794,2.698 0.799,2.846c0.005,0.178 -0.667,0.103 -2.017,-0.225l-2.025,-0.494l0.695,-0.791c0.668,-0.761 1.435,-2.771 1.435,-3.761Zm13.74,-0.394c0.099,-0.001 0.18,0.263 0.18,0.588c-0,0.873 0.899,3.119 1.445,3.614c0.261,0.236 0.475,0.512 0.475,0.612c-0,0.226 -3.544,1.08 -3.726,0.897c-0.177,-0.178 1.397,-5.707 1.626,-5.711Zm0.508,-2.403c0.086,0.001 0.614,0.333 1.174,0.739c0.56,0.406 2.557,1.608 4.438,2.671c1.881,1.063 3.419,2 3.417,2.081c-0.003,0.143 -3.626,1.096 -5.63,1.481c-0.872,0.168 -1.014,0.118 -1.682,-0.59c-0.401,-0.425 -0.917,-1.369 -1.147,-2.097c-0.447,-1.418 -0.828,-4.285 -0.57,-4.285Zm-14.634,0.016c0.118,-0.009 0.149,0.607 0.069,1.374c-0.2,1.912 -0.98,4.307 -1.628,4.997c-0.324,0.345 -0.812,0.573 -1.224,0.573c-0.764,0 -5.729,-1.177 -6.011,-1.425c-0.098,-0.087 1.407,-1.07 3.344,-2.184c1.937,-1.114 3.908,-2.316 4.379,-2.672c0.471,-0.355 0.953,-0.653 1.071,-0.663Zm2.345,-28.119c2.045,-1.102 5.428,-1.473 7.761,-0.851c3.392,0.903 5.488,3.15 6.103,6.539c0.315,1.736 0.062,5.14 -0.815,11c-0.435,2.906 -0.731,4.206 -1.039,4.56c-1.674,1.925 -3.607,3.94 -4.218,4.395c-0.63,0.47 -1.016,0.54 -2.961,0.54l-2.236,0l-2.17,-2.245c-1.193,-1.234 -2.326,-2.469 -2.518,-2.742c-0.37,-0.528 -1.33,-6.284 -1.804,-10.816c-0.333,-3.187 -0.074,-5.397 0.845,-7.211c0.572,-1.13 1.979,-2.591 3.052,-3.169Zm-4.885,11.063c0.391,0 0.502,0.373 0.861,2.907c0.226,1.599 0.354,2.965 0.284,3.034c-0.487,0.487 -1.479,-1.767 -1.735,-3.942c-0.174,-1.479 -0.021,-1.999 0.59,-1.999Zm19.035,1.847c0.246,-1.704 0.316,-1.866 0.781,-1.8c0.387,0.056 0.529,0.271 0.588,0.894c0.144,1.507 -0.866,4.656 -1.581,4.93c-0.393,0.151 -0.394,0.186 0.212,-4.024Z" style="fill:#434343;"/><path id="shins" d="M28.852,165.194c0.094,2.365 0.341,5.929 0.547,7.92c0.361,3.487 0.886,6.335 3.446,18.683c0.651,3.136 1.103,5.751 1.006,5.811c-0.098,0.061 -0.626,0.182 -1.174,0.269l-0.997,0.16l-0.001,-1.171c-0.002,-1.398 -1.035,-8.027 -2.408,-15.459c-1.956,-10.583 -1.952,-10.552 -1.844,-12.952c0.057,-1.253 0.361,-3.468 0.678,-4.92l0.575,-2.64l0.172,4.299Zm39.718,-1.299c0.494,2.545 0.564,3.474 0.463,6.12c-0.084,2.221 -0.366,4.365 -0.977,7.44c-1.155,5.81 -2.407,13.209 -2.904,17.16c-0.224,1.782 -0.441,3.277 -0.483,3.324c-0.042,0.046 -0.516,0.01 -1.053,-0.081c-0.693,-0.117 -0.976,-0.283 -0.976,-0.572c-0,-0.223 0.745,-3.967 1.655,-8.319c2.686,-12.837 3.087,-15.476 3.283,-21.592c0.067,-2.111 0.187,-4.433 0.266,-5.16l0.145,-1.32l0.581,3Zm-38.653,-6.685c0.809,-1.38 0.787,-1.436 1.728,4.429c1.133,7.059 1.923,13.809 2.792,23.856c0.989,11.426 1.002,11.638 0.741,11.817c-0.431,0.294 -0.604,0.208 -0.722,-0.357c-0.062,-0.297 -0.556,-2.7 -1.098,-5.34c-0.542,-2.639 -1.352,-6.527 -1.8,-8.64c-1.541,-7.258 -2.271,-14.183 -2.276,-21.579c-0.002,-2.923 0.034,-3.16 0.635,-4.186Zm35.753,-0.09c0.177,-1.051 0.36,-0.992 1.148,0.368l0.584,1.007l-0.209,6.045c-0.219,6.314 -0.805,11.713 -1.787,16.455c-0.308,1.485 -1.173,5.671 -1.922,9.3c-1.609,7.795 -1.455,7.227 -1.915,7.051c-0.44,-0.169 -0.458,-0.76 -0.125,-4.171c0.136,-1.386 0.57,-6.138 0.966,-10.56c0.919,-10.274 1.602,-15.612 3.26,-25.495Z" style="fill:#757575;"/><path id="calves_front" d="M36.837,178.775c-0.102,-1.644 -0.075,-2.436 0.078,-2.28c0.13,0.133 0.872,1.051 1.65,2.04l1.415,1.8l-0.554,2.28c-0.305,1.254 -0.734,3.71 -0.954,5.457c-0.219,1.748 -0.43,3.146 -0.468,3.107c-0.104,-0.107 -0.986,-9.481 -1.167,-12.404Zm22.844,-2.4c0.079,0 0.071,1.269 -0.017,2.82c-0.184,3.228 -0.796,9.853 -1.025,11.1c-0.121,0.661 -0.221,0.264 -0.469,-1.858c-0.174,-1.484 -0.594,-3.939 -0.934,-5.457l-0.619,-2.758l1.206,-1.45c0.664,-0.797 1.321,-1.663 1.46,-1.923c0.139,-0.261 0.318,-0.473 0.398,-0.474Zm-19.835,-14.879c0.071,0.001 0.435,1.919 0.811,4.263c0.579,3.605 0.665,4.725 0.563,7.26c-0.112,2.771 -0.747,6.484 -1.107,6.47c-0.177,-0.008 -2.332,-2.825 -3.006,-3.93c-0.399,-0.655 -0.436,-1.069 -0.314,-3.503c0.085,-1.696 0.336,-3.455 0.649,-4.561c0.533,-1.877 2.184,-5.998 2.404,-5.999Zm16.708,0.49c0.099,-0.487 0.283,-0.229 1.054,1.478c0.514,1.137 1.167,2.915 1.452,3.95c0.356,1.294 0.55,2.818 0.62,4.881l0.101,3l-1.606,2.126c-1.178,1.559 -1.658,2.035 -1.798,1.785c-0.105,-0.188 -0.383,-1.145 -0.618,-2.126c-0.751,-3.14 -0.443,-8.993 0.795,-15.094Z" style="fill:#757575;"/><path id="quads" d="M39.501,124.535c0.03,0 0.388,1.377 0.795,3.06c0.935,3.865 1.855,9.366 2.221,13.268l0.283,3.021l-0.683,1.255c-1.299,2.385 -3.565,3.863 -4.382,2.856c-0.499,-0.615 -1.018,-2.653 -1.166,-4.579c-0.133,-1.733 -0.058,-2.369 0.589,-4.974c0.828,-3.336 1.553,-7.453 1.994,-11.327c0.162,-1.418 0.319,-2.579 0.349,-2.58Zm14.487,16.353c0.51,-4.802 2.698,-16.386 3.031,-16.053c0.05,0.051 0.312,1.813 0.582,3.916c0.502,3.913 1.402,8.661 2.041,10.763c0.452,1.489 0.451,4.099 -0.002,6.237c-0.403,1.906 -0.868,2.544 -1.853,2.544c-0.875,0 -2.76,-1.854 -3.555,-3.495c-0.527,-1.089 -0.534,-1.195 -0.244,-3.912Zm-24.571,-30.456c0.054,0.054 -0.017,1.279 -0.158,2.721c-0.349,3.56 -0.352,11.046 -0.005,13.542c0.509,3.674 1.261,7.022 2.371,10.56c0.959,3.057 1.094,3.758 1.112,5.76c0.017,1.834 -0.073,2.464 -0.458,3.219c-0.264,0.516 -0.587,0.948 -0.719,0.96c-0.348,0.031 -2.434,-5.917 -3.402,-9.699c-0.8,-3.122 -0.839,-3.484 -1.076,-9.96c-0.321,-8.749 -0.275,-9.311 1.103,-13.641c0.623,-1.958 1.178,-3.516 1.232,-3.462Zm37.643,0.363c-0.335,-1.601 0.189,-0.387 1.244,2.88c1.108,3.431 1.146,3.648 1.242,7.02c0.054,1.914 -0.018,5.964 -0.159,9c-0.275,5.93 -0.566,7.509 -2.224,12.117c-0.404,1.124 -1.012,2.826 -1.35,3.784c-0.587,1.66 -0.635,1.722 -1.055,1.341c-0.614,-0.555 -0.972,-2.064 -0.96,-4.042c0.007,-1.276 0.274,-2.573 1.113,-5.4c1.915,-6.453 2.769,-11.652 2.768,-16.85c-0,-2.769 -0.371,-8.662 -0.619,-9.85Zm-36.981,-0.935c0.387,-3.27 2.536,-11.134 2.836,-10.377c0.099,0.249 0.462,1.964 0.806,3.812c0.929,4.981 2.331,10.511 3.863,15.24c0.924,2.854 1.349,4.546 1.325,5.28c-0.107,3.286 -1.382,11.185 -2.439,15.1l-0.529,1.963l-2.659,-0.143l-0.576,-1.68c-1.011,-2.95 -2.421,-8.794 -2.838,-11.763c-0.329,-2.343 -0.377,-3.968 -0.262,-8.757c0.078,-3.234 0.291,-7.138 0.473,-8.675Zm33.521,-10.703c-0,-0.436 0.299,0.443 1.325,3.89c1.238,4.158 1.595,6.498 2.051,13.437c0.484,7.365 -0.213,13.015 -2.578,20.891c-0.475,1.584 -0.971,3.015 -1.101,3.18c-0.131,0.167 -0.758,0.3 -1.413,0.3c-1.061,0 -1.201,-0.064 -1.431,-0.66c-0.854,-2.21 -2.352,-10.594 -2.738,-15.32c-0.154,-1.889 -0.123,-2.052 1.17,-6.12c1.777,-5.591 2.591,-8.76 3.746,-14.578c0.533,-2.683 0.969,-4.942 0.969,-5.02Z" style="fill:#757575;"/><path id="adductors" d="M30.888,90.127c0.093,-0.093 0.637,0.3 1.21,0.873c1.01,1.009 1.103,1.24 3.052,7.508c1.105,3.557 2.983,9.383 4.173,12.947c2.892,8.665 4.055,14.255 4.504,21.642c0.123,2.024 0.06,3.136 -0.281,5l-0.438,2.398l-0.441,-3.12c-0.807,-5.711 -2.06,-11.19 -3.794,-16.59c-2.556,-7.961 -3.793,-12.901 -5.282,-21.09c-1.178,-6.48 -1.381,-7.233 -2.171,-8.022c-0.687,-0.687 -0.867,-1.211 -0.532,-1.546Zm33.45,0.988c1.092,-1.271 1.422,-1.406 1.422,-0.581c-0,0.306 -0.267,0.808 -0.594,1.115c-0.789,0.741 -1.061,1.776 -2.636,10.028c-1.569,8.22 -2.187,10.702 -4.322,17.329c-2.096,6.505 -2.836,9.451 -3.727,14.836l-0.922,5.573c-0.173,1.039 -0.196,0.979 -0.617,-1.589c-0.416,-2.539 -0.418,-2.877 -0.042,-6.902c0.717,-7.672 1.588,-11.47 4.823,-21.029c1.095,-3.234 2.28,-6.852 2.633,-8.04c2.275,-7.657 2.99,-9.586 3.982,-10.74Zm-7.929,12.3c0.097,0 0.251,0.405 0.342,0.9c0.091,0.495 0.411,1.345 0.712,1.888l0.546,0.987l-1.537,4.653c-2.503,7.577 -3.383,11.461 -3.956,17.475c-0.163,1.714 -0.326,3.087 -0.361,3.053c-0.035,-0.035 -0.561,-2.542 -1.17,-5.57c-0.864,-4.294 -1.136,-6.22 -1.235,-8.75l-0.128,-3.244l0.652,-0.349c1.065,-0.57 1.649,-1.455 3.104,-4.712c2.523,-5.644 2.851,-6.331 3.031,-6.331Zm-15.666,1.081c0.337,0.659 1.252,2.657 2.034,4.439c1.743,3.976 2.143,4.638 3.195,5.288c0.456,0.281 0.894,0.774 0.975,1.095c0.274,1.091 -0.413,6.685 -1.455,11.857c-0.572,2.838 -1.098,4.998 -1.168,4.8c-0.071,-0.198 -0.2,-1.278 -0.287,-2.4c-0.398,-5.109 -1.731,-11.059 -4.071,-18.159l-1.357,-4.119l0.47,-0.922c0.259,-0.507 0.601,-1.408 0.761,-2.001l0.29,-1.078l0.613,1.2Z" style="fill:#757575;"/><path id="forearms_front" d="M22.602,79.415c0.098,0 0.345,0.56 0.548,1.244c0.763,2.568 0.825,2.369 -4.129,13.156c-1.182,2.574 -2.608,5.99 -3.168,7.591l-1.018,2.911l-0.844,-0.259c-0.464,-0.143 -0.889,-0.379 -0.945,-0.526c-0.136,-0.354 3.397,-9.672 6.277,-16.557c1.271,-3.035 2.488,-5.979 2.705,-6.54c0.218,-0.56 0.476,-1.019 0.574,-1.02Zm50.729,1.785c0.406,-1.725 0.642,-2.114 0.901,-1.485c0.068,0.166 1.382,3.318 2.919,7.005c3.194,7.658 4.071,9.871 5.548,14.002l1.055,2.947l-0.567,0.216c-1.21,0.46 -1.425,0.402 -1.74,-0.47c-0.167,-0.462 -0.702,-1.974 -1.188,-3.36c-0.487,-1.386 -2.157,-5.244 -3.711,-8.574c-3.76,-8.056 -3.749,-8.021 -3.217,-10.281Zm2.948,-4.689c0.353,0.253 0.935,0.77 1.294,1.149c0.418,0.44 0.909,1.507 1.363,2.962c2.421,7.762 5.922,18.858 6.423,20.359c0.324,0.971 0.556,1.792 0.515,1.824c-0.041,0.033 -0.431,0.179 -0.865,0.326c-0.604,0.204 -0.815,0.198 -0.891,-0.024c-1.882,-5.469 -3.641,-9.943 -8.153,-20.738c-1.723,-4.122 -1.775,-4.477 -0.831,-5.677l0.505,-0.642l0.64,0.461Zm-55.286,-0.387c0.136,0.04 0.489,0.556 0.785,1.147l0.54,1.074l-1.818,4.315c-2.904,6.895 -4.808,11.633 -6.496,16.167c-0.866,2.325 -1.619,4.302 -1.675,4.394c-0.126,0.208 -1.529,-0.267 -1.529,-0.517c-0,-0.102 1.306,-4.33 2.903,-9.397c1.597,-5.066 3.282,-10.454 3.744,-11.972c0.77,-2.527 0.944,-2.867 2.07,-4.022c0.677,-0.694 1.341,-1.229 1.476,-1.189Zm-4.913,-5.825c0.066,-0.001 0.483,1.52 0.928,3.379c0.616,2.578 0.771,3.655 0.654,4.539c-0.085,0.638 -1.109,4.165 -2.277,7.839c-1.167,3.674 -2.804,8.873 -3.636,11.555c-1.506,4.855 -1.515,4.875 -2.13,4.72c-0.34,-0.085 -0.646,-0.183 -0.681,-0.217c-0.035,-0.035 0.151,-1.105 0.413,-2.378c0.463,-2.251 1.188,-7.332 2.162,-15.161c0.57,-4.579 0.979,-6.285 2.157,-9l1.588,-3.657c0.386,-0.89 0.756,-1.618 0.822,-1.619Zm64.508,-0.136c0.058,0.059 0.48,0.949 0.938,1.979c2.717,6.109 2.914,6.866 3.911,15.073c0.401,3.3 1.063,7.978 1.47,10.396c0.408,2.418 0.703,4.429 0.657,4.47c-0.047,0.041 -0.319,0.147 -0.607,0.235c-0.49,0.151 -0.599,-0.071 -1.723,-3.51c-2.984,-9.127 -6.087,-19.379 -6.206,-20.506c-0.095,-0.903 0.082,-2.175 0.662,-4.738c0.436,-1.927 0.84,-3.457 0.898,-3.399Z" style="fill:#757575;"/><path id="biceps" d="M68.646,53.975c0.342,-3.883 0.263,-3.744 1.692,-2.966c0.651,0.354 1.613,1.077 2.138,1.608c1.684,1.701 3.729,6.301 4.815,10.834c0.706,2.943 0.787,5.533 0.294,9.351l-0.433,3.347l-2.461,-2.266c-3.554,-3.271 -4.381,-4.689 -5.702,-9.771c-0.665,-2.56 -0.76,-5.384 -0.343,-10.137Zm5.45,-0.591c0.365,0.236 1.263,0.887 1.994,1.446c1.774,1.356 1.831,1.438 2.615,3.746c1.579,4.645 1.923,9.039 0.994,12.679c-0.286,1.122 -0.748,2.738 -1.026,3.59c-0.462,1.416 -0.525,1.499 -0.729,0.96c-0.148,-0.393 -0.089,-1.61 0.179,-3.65c0.093,-0.711 0.159,-1.396 0.198,-2.067c0.012,-0.638 0.018,-1.268 0.016,-1.833c-0.001,-0.275 -0.002,-0.532 -0.005,-0.773c-0.088,-1.671 -0.362,-3.341 -0.833,-5.195c-0.692,-2.723 -2.265,-6.654 -3.245,-8.109l-0.823,-1.223l0.665,0.429Zm-51.486,-0.116c0.093,-0.007 -0.249,0.77 -0.761,1.727c-1.224,2.288 -2.775,6.93 -3.267,9.78c-0.39,2.258 -0.381,4.191 0.041,9.148c0.191,2.247 -0.184,2.711 -0.708,0.875c-1.608,-5.631 -1.664,-5.952 -1.522,-8.703c0.139,-2.687 0.828,-5.903 1.84,-8.582c0.457,-1.208 0.755,-1.562 2.365,-2.807c1.013,-0.784 1.918,-1.431 2.012,-1.438Zm0.991,-0.11c0.839,-1.065 3.507,-2.89 3.799,-2.598c0.106,0.106 0.301,1.215 0.432,2.464c0.132,1.249 0.241,3.838 0.244,5.753c0.003,2.941 -0.085,3.798 -0.566,5.52c-0.865,3.095 -1.739,5.209 -2.684,6.497c-0.904,1.232 -4.118,4.327 -5.055,4.921l-0.204,0.197l-0.014,-0.097c-0.314,-0 -0.485,-1.315 -0.698,-5.497c-0.062,-0.747 -0.089,-1.372 -0.083,-1.927c-0.044,-1.678 0.058,-2.577 0.413,-4.295c0.815,-3.948 2.818,-8.91 4.416,-10.938Z" style="fill:#757575;"/><path d="M55.474,83.771c0.68,-0.016 1.129,0.008 1.399,0.079l0.127,0.005l-0.002,0.035c0.105,0.043 0.167,0.098 0.194,0.167c0.302,0.788 -0.549,6.075 -1.435,8.908c-0.684,2.186 -4.247,11.007 -4.779,11.83c-0.04,0.061 -0.08,0.115 -0.121,0.163l-0.057,0.137l-0.084,0c-0.238,0.186 -0.569,0.24 -1.2,0.24l-1.113,0l0.144,-9.463c0.054,-3.605 0.092,-5.938 0.173,-7.496l-0,-1.905l0.247,-0.382c0.185,-0.797 0.47,-1.077 0.937,-1.5c0.534,-0.483 2.329,-0.747 5.57,-0.818Zm-16.014,2.435c-0.247,-2.658 -0.374,-2.563 3.204,-2.37c2.33,0.125 3.198,0.264 3.656,0.586c0.33,0.232 0.844,0.899 1.142,1.484c0.1,0.194 0.18,0.354 0.246,0.543l0.052,0.089l-0,0.079c0.239,0.874 0.23,2.545 0.182,9.475l-0.062,9.123l-0.981,0.072c-0.547,0.04 -0.971,-0.03 -1.184,-0.192l-0.037,0l-0.024,-0.055c-0.004,-0.005 -0.008,-0.009 -0.012,-0.014c-0.48,-0.578 -4.078,-9.432 -4.825,-11.872c-0.771,-2.52 -1.105,-4.229 -1.357,-6.948Zm9.326,-8.512c0.175,-2.558 0.317,-2.697 2.569,-2.517c0.993,0.079 2.537,0.35 3.433,0.601c2.62,0.736 3.056,1.467 2.592,4.345c-0.375,2.331 -0.557,2.441 -4.274,2.592c-3.006,0.122 -3.123,0.108 -3.617,-0.422c-0.643,-0.691 -0.87,-2.172 -0.703,-4.599Zm-2.9,-2.571c0.91,-0.023 1.198,0.075 1.5,0.506c0.28,0.399 0.374,1.157 0.374,3.012c-0,2.8 -0.332,3.787 -1.358,4.045c-0.875,0.22 -5.707,-0.061 -6.275,-0.365c-0.572,-0.307 -1.007,-1.924 -1.007,-3.743c-0,-1.822 0.538,-2.349 2.905,-2.849l2.255,-0.477c0.264,-0.056 0.987,-0.114 1.606,-0.129Zm3.663,-9.387c0.634,-0.187 1.574,0.081 2.95,0.829c1.677,0.913 4.068,2.894 4.5,3.729c0.464,0.897 0.48,3.586 0.025,4.208c-0.329,0.45 -0.391,0.449 -3.42,-0.098c-1.696,-0.306 -3.351,-0.681 -3.677,-0.833c-0.989,-0.46 -1.2,-1.231 -1.204,-4.402c-0.003,-2.41 0.03,-2.875 0.364,-3.174c0.011,-0.055 0.022,-0.089 0.033,-0.1c0.09,-0.09 0.237,-0.142 0.429,-0.159Zm-4.051,0.116c1.158,-0.413 1.222,-0.416 1.798,-0.108c0.421,0.226 0.464,0.527 0.46,3.3c-0.001,1.678 -0.069,3.299 -0.15,3.601c-0.22,0.819 -1.147,1.178 -4.522,1.748c-3.693,0.624 -3.727,0.608 -3.906,-1.894l-0.12,-1.679l1.136,-1.214c1.319,-1.41 3.948,-3.271 5.304,-3.754Zm0.604,-6.584c0.051,-0.002 0.111,0.009 0.176,0.03c0.366,0.015 0.596,0.117 0.748,0.301c0.157,0.189 0.388,1.069 0.513,1.956c0.141,0.991 0.204,1.496 -0.142,1.965l0.003,0.139l-0.285,0.162c-0.423,0.373 -1.142,0.786 -2.322,1.456c-1.206,0.685 -2.818,1.734 -3.58,2.333c-0.91,0.713 -1.469,1.006 -1.624,0.851c-0.358,-0.358 -0.941,-3.391 -0.945,-4.919c-0.006,-1.937 0.311,-2.22 3.716,-3.319c1.57,-0.507 2.629,-0.796 3.349,-0.891c0.172,-0.039 0.307,-0.061 0.393,-0.064Zm3.101,1.173c0.398,-1.475 0.801,-1.494 4.806,-0.232c1.771,0.559 3.207,1.155 3.464,1.439c0.386,0.426 0.422,0.771 0.296,2.836c-0.151,2.483 -0.427,3.564 -0.969,3.788l-0.047,0.09l-0.14,-0.095c-0.321,-0.083 -0.955,-0.437 -1.58,-0.895c-0.777,-0.57 -2.349,-1.56 -3.493,-2.2c-1.145,-0.64 -2.211,-1.32 -2.37,-1.512c-0.334,-0.403 -0.319,-1.911 0.033,-3.219Z" style="fill:#757575;"/><path id="obliques" d="M32.11,72.695c0.105,0 0.607,0.546 1.115,1.212c0.508,0.667 1.496,1.721 2.194,2.344c1.44,1.283 1.78,1.98 1.78,3.64c0,1.371 -0.173,1.924 -0.603,1.924c-0.491,0 -2.905,-2.068 -3.834,-3.285c-0.14,-0.184 -0.256,-0.338 -0.354,-0.478l-0.249,-0.245l0.001,-0.172c-0.236,-0.5 -0.241,-1.048 -0.241,-2.574c0,-1.301 0.086,-2.365 0.191,-2.366Zm32.355,0.915c0.056,0.337 0.094,0.952 0.094,1.631c0,0.316 -0.011,0.618 -0.032,0.9c-0.005,1.053 -0.118,1.421 -0.466,1.984c-0.535,0.865 -3.653,3.69 -4.073,3.69c-0.494,0 -0.769,-1.161 -0.598,-2.528c0.166,-1.326 0.242,-1.442 2.61,-3.946l2.439,-2.58l0.026,0.849Zm-31.923,-4.792c0.171,-0.277 0.517,-0.255 0.703,0.045c0.084,0.137 0.989,0.834 2.01,1.55c1.022,0.716 1.986,1.581 2.141,1.923c0.35,0.767 0.371,3.106 0.035,3.735c-0.041,0.076 -0.083,0.142 -0.127,0.198c-0.012,0.023 -0.025,0.042 -0.037,0.055c-0.028,0.027 -0.057,0.05 -0.087,0.069c-0.421,0.327 -1.063,-0.113 -2.426,-1.551c-2.011,-2.122 -2.711,-3.48 -2.494,-4.838c0.086,-0.541 0.213,-1.074 0.282,-1.186Zm31.332,-0.193c0.085,-0.006 0.219,0.161 0.3,0.37c0.272,0.71 0.146,2.305 -0.247,3.134c-0.638,1.345 -3.668,4.443 -4.263,4.358c-0.294,-0.042 -0.42,-0.132 -0.49,-0.661c-0.134,-0.507 -0.17,-1.3 -0.104,-2.047c-0.026,-1.24 0.072,-1.428 0.62,-2.029c0.638,-0.699 3.859,-3.106 4.184,-3.125Zm-31.592,-2.396c-0.167,-0.988 0.036,-2.496 0.319,-2.367c0.087,0.04 1.093,0.589 2.235,1.22c1.143,0.631 2.148,1.332 2.235,1.557c0.354,0.925 0.412,3.296 0.09,3.719c-0.299,0.393 -0.431,0.349 -1.903,-0.639c-1.974,-1.325 -2.768,-2.257 -2.976,-3.49Zm27.305,0.472c0.305,-0.602 4.206,-2.94 4.552,-2.728c0.099,0.061 0.18,0.628 0.18,1.261c0,1.751 -0.383,2.53 -1.758,3.574c-1.585,1.204 -2.415,1.76 -2.842,1.668c-0.06,0.005 -0.103,-0.004 -0.129,-0.03c-0.008,-0.008 -0.015,-0.021 -0.022,-0.04c-0.237,-0.192 -0.287,-0.727 -0.285,-1.604c0.002,-0.828 0.139,-1.774 0.304,-2.101Zm4.989,-8.156c0.075,-0.005 0.046,0.774 -0.064,1.73c-0.11,0.957 -0.319,2.035 -0.464,2.397c-0.279,0.694 -1.897,1.815 -3.409,2.362c-0.782,0.282 -0.937,0.279 -1.129,-0.026c-0.339,-0.536 -0.274,-1.795 0.148,-2.849c0.412,-1.031 1.551,-1.678 3.046,-1.732c0.436,-0.015 0.584,-0.077 0.339,-0.14c-0.367,-0.095 -0.29,-0.241 0.48,-0.923c0.504,-0.444 0.978,-0.813 1.053,-0.819Zm-32.715,-0.01c0.047,0 0.514,0.344 1.037,0.764c0.68,0.546 0.863,0.818 0.645,0.956c-0.198,0.126 -0.087,0.194 0.321,0.197c0.82,0.004 2.149,0.459 2.676,0.915c0.891,0.771 1.075,3.504 0.257,3.818c-0.443,0.17 -3.19,-1.195 -3.876,-1.925c-0.402,-0.428 -0.618,-1.108 -0.844,-2.65c-0.166,-1.141 -0.264,-2.074 -0.216,-2.075Zm-0.786,27.243c0.095,-1.718 0.323,-3.987 0.508,-5.043c0.185,-1.056 0.336,-1.971 0.336,-2.033c0.001,-0.06 0.622,0.487 1.381,1.218c0.758,0.732 1.949,1.794 2.646,2.36c0.696,0.567 1.368,1.222 1.494,1.455c0.124,0.234 0.614,2.675 1.087,5.426c0.824,4.793 1.303,6.701 0.993,3.953c-0.186,-1.637 0.101,-1.345 0.808,0.821c0.22,0.673 0.529,1.517 0.887,2.442c0.091,0.233 -1.173,0.163 -2.041,-0.317c-0.204,-0.129 -0.556,-0.296 -0.954,-0.444c-0.895,-0.334 -1.806,-1.104 -4.228,-3.57l-3.088,-3.146l0.171,-3.122Zm24.224,10.602c0.526,-1.303 0.973,-2.473 1.242,-3.285c0.418,-1.262 0.443,-1.288 0.577,-0.6c0.102,0.526 0.29,-0.154 0.695,-2.52c1.067,-6.238 1.099,-6.332 2.505,-7.474c0.684,-0.556 1.911,-1.656 2.728,-2.447c1.424,-1.376 1.492,-1.412 1.623,-0.858c0.454,1.907 0.627,3.344 0.766,6.357l0.155,3.377l-2.356,2.456c-2.761,2.876 -3.906,3.827 -5.103,4.239c-0.323,0.111 -0.625,0.262 -0.802,0.393c-0.648,0.48 -2.106,0.551 -2.03,0.362Z" style="fill:#757575;"/><path id="lat_front" d="M28.422,53.495c0.072,0 0.471,0.675 0.888,1.5c0.416,0.825 1.011,1.834 1.323,2.243c0.359,0.471 0.567,1.067 0.567,1.63c-0,0.488 0.164,1.684 0.365,2.658c0.265,1.283 0.304,2.046 0.14,2.774c-0.16,0.712 -0.133,1.36 0.091,2.226c0.207,0.798 0.242,1.418 0.1,1.79c-0.119,0.314 -0.225,1.13 -0.235,1.815l-0.018,1.244l-0.839,-2.4c-1.979,-5.663 -2.024,-5.884 -2.155,-10.668c-0.066,-2.435 -0.174,-4.514 -0.239,-4.62c-0.066,-0.106 -0.06,-0.192 0.012,-0.192Zm39.573,0.036c0.025,0.046 -0.011,2.136 -0.08,4.644l-0.124,4.56l-2.87,8.64l-0.169,-2.035c-0.094,-1.129 -0.068,-2.492 0.06,-3.06c0.148,-0.664 0.145,-1.401 -0.01,-2.093c-0.153,-0.681 -0.157,-1.285 -0.012,-1.666c0.124,-0.329 0.303,-1.441 0.395,-2.472c0.117,-1.301 0.332,-2.133 0.702,-2.723c0.294,-0.466 0.878,-1.53 1.299,-2.364c0.421,-0.833 0.785,-1.477 0.809,-1.431Z" style="fill:#757575;"/><path id="chest" d="M37.08,37.188c0.264,-0.009 2.136,0.336 4.162,0.765l3.682,0.782l2.836,2.651l-0,6.922c-0,6.698 -0.017,6.952 -0.531,7.866c-0.292,0.52 -0.859,1.144 -1.26,1.388c-0.867,0.527 -5.32,1.803 -7.7,2.207c-1.612,0.274 -1.75,0.259 -3,-0.319c-1.782,-0.824 -3.79,-2.385 -4.578,-3.558c-0.919,-1.368 -2.897,-6.149 -2.917,-7.047c-0.021,-1.006 1.911,-5.776 2.819,-6.959c0.845,-1.101 5.78,-4.675 6.487,-4.698Zm19.44,0.474c1.49,-0.333 2.262,-0.501 2.962,-0.377c0.022,-0 0.04,0.001 0.051,0.003c0.016,0.002 0.038,0.009 0.066,0.021c0.683,0.155 1.331,0.599 2.561,1.452c3.8,2.637 4.294,3.283 6.001,7.843c0.735,1.964 0.768,2.179 0.487,3.12c-0.418,1.398 -2.297,5.379 -3.057,6.48c-0.64,0.925 -3.373,2.911 -4.845,3.52c-0.99,0.41 -2.433,0.203 -6.593,-0.95c-2.939,-0.814 -3.974,-1.346 -4.811,-2.476c-0.478,-0.643 -0.506,-1.013 -0.573,-7.424c-0.049,-4.697 0.013,-6.95 0.206,-7.414c0.482,-1.166 2.7,-2.778 4.254,-3.092c0.754,-0.153 2.235,-0.47 3.291,-0.706Z" style="fill:#f3fc01;"/><path id="delts_front" d="M67.003,35.033c0.222,-0.01 1.302,0.313 2.4,0.717c3.853,1.417 5.331,2.674 6.898,5.865c1.514,3.084 1.771,4.05 1.884,7.104c0.09,2.424 -0.228,6.099 -0.556,6.427c-0.061,0.061 -0.354,-0.104 -0.65,-0.367c-0.297,-0.263 -1.619,-1.246 -2.939,-2.185c-3.668,-2.608 -4.203,-3.259 -5.667,-6.899c-0.691,-1.716 -1.509,-3.505 -1.818,-3.976c-0.309,-0.471 -1.44,-1.497 -2.513,-2.28c-2.903,-2.118 -3.515,-2.682 -3.082,-2.845c0.714,-0.269 5.649,-1.543 6.043,-1.561Zm-42.897,2.02c1.433,-0.837 5.193,-2.055 5.894,-1.909c0.33,0.068 1.715,0.418 3.079,0.778c1.363,0.359 2.497,0.761 2.52,0.893c0.003,0.019 -0.017,0.052 -0.055,0.1c0.011,0.037 -0.005,0.072 -0.044,0.105c-0.014,0.012 -0.095,0.073 -0.229,0.173c-0.436,0.405 -1.263,1.076 -2.215,1.785c-1.42,1.057 -2.807,2.29 -3.081,2.741c-0.274,0.45 -0.984,2.015 -1.579,3.478c-1.495,3.678 -2.005,4.476 -3.732,5.831c-2.154,1.689 -5.719,4.215 -5.806,4.113c-0.214,-0.248 -0.618,-4.094 -0.618,-5.881c-0,-2.56 0.459,-4.376 1.834,-7.245c1.161,-2.424 2.494,-4.065 4.032,-4.962Z" style="fill:#757575;"/></g></svg>