<?xml version="1.0" encoding="UTF-8" standalone="no"?><!DOCTYPE svg PUBLIC "-//W3C//DTD SVG 1.1//EN" "http://www.w3.org/Graphics/SVG/1.1/DTD/svg11.dtd"><svg width="100%" height="100%" viewBox="0 0 96 216" version="1.1" xmlns="http://www.w3.org/2000/svg" xmlns:xlink="http://www.w3.org/1999/xlink" xml:space="preserve" xmlns:serif="http://www.serif.com/" style="fill-rule:evenodd;clip-rule:evenodd;stroke-linejoin:round;stroke-miterlimit:2;"><g id="muscles_rear"><path id="body_rear" d="M62.639,179.427c0.351,0.484 1.028,1.222 1.504,1.639c0.476,0.417 1.075,0.825 1.331,0.906c0.452,0.144 0.446,0.213 -0.201,2.279c-1.52,4.848 -2.959,12.937 -3.341,18.782c-0.321,4.913 0.038,6.216 1.81,6.57c1.129,0.226 1.538,-0.336 1.538,-2.111l-0,-1.461l1.513,1.418c0.832,0.78 1.869,1.715 2.306,2.079c0.664,0.554 0.766,0.768 0.63,1.32c-0.09,0.362 -0.236,0.728 -0.326,0.813c-0.09,0.085 -1.638,0.922 -3.44,1.86c-2.749,1.431 -3.465,1.706 -4.44,1.705c-1.668,-0.002 -2.864,-0.398 -3.461,-1.147c-0.493,-0.618 -0.51,-0.795 -0.334,-3.412c0.274,-4.053 0.262,-4.261 -0.36,-6.407l-0.57,-1.968l0.568,-1.992c0.492,-1.727 0.568,-2.505 0.563,-5.833l-0.006,-3.84l0.421,2.16c0.787,4.034 1.218,8.52 1.135,11.821c-0.051,2.048 0.006,3.151 0.161,3.1c1.092,-0.365 0.288,-11.245 -1.316,-17.801c-0.387,-1.584 -0.859,-3.548 -1.049,-4.364l-0.345,-1.484l1.271,-0.622c1.4,-0.685 2.156,-1.54 3.145,-3.555l0.655,-1.336l0.638,0.881Zm-28.223,0.56c0.388,0.784 1.128,1.848 1.645,2.364c0.516,0.517 1.308,1.073 1.759,1.236c0.515,0.186 0.82,0.455 0.82,0.724c-0,0.235 -0.374,2.022 -0.832,3.972c-1.064,4.534 -1.748,8.785 -1.999,12.424c-0.246,3.558 -0.108,7.08 0.276,7.079c0.196,-0.001 0.278,-1.253 0.286,-4.38c0.01,-3.634 0.126,-5.073 0.686,-8.459c0.371,-2.244 0.724,-4.132 0.785,-4.196c0.06,-0.064 0.035,1.34 -0.058,3.12c-0.152,2.935 -0.116,3.426 0.383,5.276c0.777,2.878 0.808,3.527 0.247,5.138c-0.272,0.779 -0.494,1.663 -0.494,1.962c-0,0.3 -0.162,0.708 -0.36,0.906c-0.444,0.444 -0.463,0.659 -0.044,0.498c0.238,-0.092 0.383,0.484 0.59,2.347c0.151,1.358 0.213,2.767 0.136,3.132c-0.295,1.406 -2.124,2.281 -4.265,2.04c-1.001,-0.113 -6.509,-2.711 -7.397,-3.489c-0.673,-0.59 -0.546,-1.837 0.24,-2.348c0.363,-0.236 1.335,-1.076 2.16,-1.866l1.5,-1.436l-0,1.461c-0,2.141 1.031,2.864 2.47,1.731c0.982,-0.772 1.215,-1.884 1.028,-4.896c-0.428,-6.859 -2.065,-16.064 -3.697,-20.787l-0.459,-1.328l1.166,-0.65c0.74,-0.414 1.45,-1.08 1.943,-1.826l0.778,-1.175l0.707,1.426Zm-4.551,6.749c-0.868,-5.062 -0.781,-5.223 0.471,-0.874c2.295,7.976 3.853,20.736 2.739,22.441c-0.429,0.658 -1.164,0.975 -1.613,0.697c-0.15,-0.092 -0.328,-0.916 -0.396,-1.83c-0.068,-0.915 -0.238,-2.419 -0.377,-3.343c-0.209,-1.373 -0.185,-1.949 0.128,-3.154c0.211,-0.812 0.383,-2.054 0.383,-2.76c-0.001,-1.781 -0.636,-7.1 -1.335,-11.177Zm36.506,-4.089c0.306,-0.978 0.184,0.177 -0.4,3.791c-0.364,2.251 -0.847,5.771 -1.074,7.825c-0.357,3.232 -0.369,3.93 -0.09,5.208c0.362,1.654 0.383,3.467 0.079,6.996c-0.202,2.354 -0.218,2.402 -0.838,2.473c-0.454,0.053 -0.775,-0.108 -1.14,-0.572c-0.437,-0.556 -0.508,-0.967 -0.508,-2.954c0.001,-5.796 1.688,-15.468 3.971,-22.767Zm-5.041,-36.003c0.03,0.035 0.65,1.253 1.376,2.707l1.322,2.644l-1.183,1.796c-0.65,0.988 -1.27,2.12 -1.377,2.516l-0.194,0.72l-0.385,-0.9c-0.426,-0.997 -0.743,-1.095 -1.598,-0.497c-0.552,0.387 -0.567,0.385 -0.371,-0.06c0.76,-1.723 1.85,-5.415 2.081,-7.047c0.151,-1.067 0.299,-1.911 0.329,-1.879Zm-26.479,2.448c0.228,1.387 0.748,3.361 1.156,4.388c0.407,1.027 0.806,2.015 0.884,2.197c0.104,0.24 -0.026,0.219 -0.478,-0.077c-0.774,-0.507 -1.483,-0.202 -1.72,0.74c-0.155,0.619 -0.188,0.591 -0.757,-0.638c-0.328,-0.707 -0.969,-1.805 -1.425,-2.439l-0.829,-1.154l2.756,-5.537l0.413,2.52Zm-26.575,-46.178c0.204,-0.33 0.082,-0.359 2.59,0.598c3.919,1.497 3.683,1.316 3.986,3.058c0.406,2.332 0.333,3.484 -0.453,7.079c-1.577,7.217 -1.943,8.479 -2.536,8.749c-0.304,0.139 -0.707,0.193 -0.897,0.12c-0.292,-0.112 -0.264,-0.49 0.185,-2.491c0.85,-3.789 0.868,-3.92 0.541,-3.92c-0.189,0 -0.596,1.382 -1.115,3.78c-1.002,4.628 -1.138,5.042 -1.715,5.226c-1.151,0.365 -1.173,-0.111 -0.222,-4.806c0.733,-3.619 0.9,-5.206 0.504,-4.788c-0.12,0.126 -0.618,2.335 -1.107,4.908c-0.49,2.574 -0.991,4.869 -1.113,5.1c-0.254,0.482 -0.526,0.522 -1.18,0.172c-0.638,-0.342 -0.603,-1.157 0.256,-5.911c0.756,-4.188 0.851,-5.121 0.517,-5.121c-0.112,0 -0.502,1.806 -0.868,4.013c-0.366,2.207 -0.717,4.151 -0.783,4.32c-0.167,0.436 -1.186,0.381 -1.36,-0.073c-0.246,-0.64 -0.145,-2.198 0.442,-6.82c0.314,-2.475 0.473,-4.536 0.358,-4.658c-0.119,-0.126 -0.668,0.298 -1.306,1.008c-0.606,0.673 -1.313,1.292 -1.571,1.373c-0.635,0.202 -1.429,-0.077 -1.429,-0.5c-0,-0.19 1.087,-2.068 2.416,-4.173c2.278,-3.61 2.51,-3.889 4.061,-4.912c0.905,-0.596 1.715,-1.195 1.799,-1.331Zm78.76,-0.232c0.021,-0.007 0.615,0.357 1.32,0.81c2.325,1.493 3.03,2.285 5.374,6.037c1.907,3.053 2.266,3.774 2.024,4.065c-0.543,0.654 -1.275,0.378 -2.681,-1.013c-0.759,-0.752 -1.459,-1.288 -1.554,-1.193c-0.096,0.096 -0.041,1.224 0.122,2.507c1.138,8.971 1.136,9.412 -0.051,9.412c-0.529,0 -0.584,-0.18 -1.247,-4.095c-0.381,-2.252 -0.77,-4.22 -0.865,-4.373c-0.415,-0.671 -0.445,0.183 -0.077,2.147c0.219,1.166 0.608,3.405 0.864,4.975c0.423,2.591 0.431,2.906 0.095,3.42c-0.429,0.654 -0.891,0.723 -1.327,0.197c-0.29,-0.348 -1.887,-8.029 -1.905,-9.157c-0.008,-0.499 -0.4,-0.962 -0.625,-0.737c-0.058,0.058 0.213,1.824 0.602,3.924c0.389,2.101 0.737,4.089 0.774,4.419c0.133,1.205 -0.715,1.625 -1.335,0.66c-0.19,-0.297 -0.723,-2.303 -1.184,-4.459c-0.461,-2.155 -0.901,-3.982 -0.979,-4.06c-0.406,-0.406 -0.351,0.408 0.208,3.051c0.339,1.608 0.555,3.024 0.48,3.146c-0.22,0.356 -0.794,0.257 -1.272,-0.221c-0.407,-0.407 -0.718,-1.529 -2.698,-9.743c-0.525,-2.181 -0.567,-3.954 -0.14,-6.009l0.299,-1.434l2.871,-1.131l2.907,-1.145Zm-56.773,-11.655c0.22,-0.222 2.429,-1.066 2.55,-0.975c0.029,0.023 -0.366,1.014 -0.879,2.204c-3.451,8.005 -4.084,15.183 -1.765,20.011c0.714,1.487 3.167,4.053 4.337,4.538l0.762,0.315l-1.187,0.591c-1.235,0.616 -2.527,2.108 -3.184,3.676l-0.351,0.84l-0.387,-1.32c-0.597,-2.033 -2.353,-10.516 -2.489,-12.023c-0.068,-0.739 0.048,-2.467 0.256,-3.84c0.208,-1.373 0.547,-3.793 0.754,-5.377c0.549,-4.214 1.31,-8.364 1.583,-8.64Zm33.378,-0.748c0.401,0.081 1.014,0.282 1.362,0.449c0.557,0.267 0.681,0.559 1.043,2.461c0.225,1.187 0.812,5.198 1.304,8.913l0.894,6.756l-0.664,3.084c-1.241,5.77 -2.087,9.564 -2.211,9.925c-0.086,0.247 -0.229,0.115 -0.455,-0.42c-0.65,-1.534 -1.825,-2.948 -3.012,-3.626l-1.191,-0.68l1.321,-0.877c1.772,-1.177 3.329,-3.217 4.144,-5.432c0.612,-1.664 0.664,-2.077 0.663,-5.285c-0.001,-4.808 -0.688,-7.833 -3.019,-13.287l-0.909,-2.127l0.73,0.146Zm-47.604,-20.251c0.09,0.001 0.352,0.461 0.583,1.024c0.232,0.562 1.176,1.883 2.1,2.935c1.098,1.251 1.812,2.313 2.064,3.072l0.385,1.16l-0.972,0.832c-0.58,0.496 -1.315,1.519 -1.824,2.536c-0.469,0.938 -0.853,1.66 -0.853,1.606c-0,-1.064 -0.702,-4.903 -1.353,-7.406c-0.776,-2.977 -0.822,-3.342 -0.568,-4.5c0.151,-0.693 0.349,-1.259 0.438,-1.259Zm63.069,1.111c0.244,-0.589 0.508,-1.032 0.586,-0.984c0.079,0.048 0.291,0.536 0.472,1.084c0.307,0.93 0.27,1.236 -0.559,4.632c-0.488,2 -0.998,4.439 -1.132,5.421c-0.134,0.983 -0.275,1.817 -0.312,1.854c-0.037,0.036 -0.37,-0.592 -0.74,-1.398c-0.37,-0.806 -1.137,-1.93 -1.705,-2.497c-0.939,-0.94 -1.016,-1.105 -0.852,-1.834c0.27,-1.195 0.624,-1.746 2.286,-3.557c0.832,-0.906 1.712,-2.13 1.956,-2.721Zm-35.953,-70.207c2.187,-1.171 6.455,-1.252 8.828,-0.168c3.338,1.524 4.738,4.047 4.698,8.465c-0.021,2.353 -1.318,11.843 -1.71,12.516c-0.129,0.221 -0.237,0.271 -0.242,0.111c-0.011,-0.44 -1.427,-1.967 -2.191,-2.361c-0.858,-0.444 -1.989,-0.442 -3.478,0.007c-1.054,0.318 -1.323,0.315 -2.558,-0.031c-0.805,-0.226 -1.742,-0.328 -2.253,-0.245c-1.194,0.194 -2.564,1.148 -3.031,2.112l-0.386,0.798l-0.224,-0.594c-0.325,-0.86 -1.726,-10.721 -1.726,-12.144c-0,-1.763 0.445,-3.878 1.08,-5.131c0.546,-1.077 2.197,-2.802 3.193,-3.335Zm13.867,12.035c0.14,-0.894 0.925,-1.102 1.176,-0.311c0.18,0.565 -0.244,3.045 -0.711,4.163c-0.324,0.774 -0.999,1.539 -1.186,1.342c-0.049,-0.052 0.065,-1.066 0.255,-2.254c0.189,-1.188 0.398,-2.511 0.466,-2.94Zm-18.904,-0.78c0.385,0 0.494,0.307 0.74,2.1c0.158,1.155 0.351,2.505 0.427,3c0.204,1.33 -0.319,1.142 -1.007,-0.362c-0.594,-1.298 -1.01,-3.699 -0.755,-4.363c0.079,-0.206 0.347,-0.375 0.595,-0.375Zm4.487,8.44c0.801,-0.629 1.149,-0.664 0.995,-0.1c-0.062,0.231 -0.294,1.176 -0.514,2.1c-0.22,0.924 -0.707,2.328 -1.082,3.12l-0.681,1.44l-0.02,-2.228c-0.024,-2.505 0.285,-3.531 1.302,-4.332Zm9.479,-0.34c-0.003,-0.283 0.325,-0.212 0.906,0.195c0.899,0.629 1.257,1.666 1.417,4.104c0.168,2.557 -0.005,2.74 -0.863,0.914c-0.426,-0.907 -1.454,-4.577 -1.46,-5.213Zm12.157,55.26c0.065,0 0.046,0.684 -0.044,1.519c-0.115,1.084 -0.023,2.304 0.323,4.26c0.416,2.348 1.086,8.637 0.933,8.76c-0.03,0.022 -1.387,-0.396 -3.017,-0.929l-2.966,-0.971l0.116,-0.867c0.064,-0.478 0.819,-2.43 1.677,-4.34c0.859,-1.91 1.853,-4.363 2.21,-5.452c0.357,-1.089 0.702,-1.98 0.768,-1.98Zm-32.682,0c0.046,0.001 0.374,0.891 0.729,1.98c0.355,1.089 1.345,3.585 2.2,5.547c0.854,1.961 1.611,3.925 1.682,4.362c0.125,0.767 0.093,0.805 -0.919,1.081c-0.577,0.158 -1.893,0.555 -2.924,0.883c-1.031,0.328 -1.909,0.558 -1.95,0.512c-0.041,-0.047 0.012,-0.679 0.118,-1.405c0.105,-0.726 0.2,-2.096 0.209,-3.045c0.01,-0.948 0.195,-2.514 0.41,-3.48c0.227,-1.012 0.386,-2.745 0.377,-4.095c-0.008,-1.287 0.022,-2.34 0.068,-2.34Zm-6.839,-3.7c0.001,-0.121 0.058,-0.164 0.126,-0.096c0.068,0.067 -0.034,1.139 -0.227,2.38c-0.192,1.241 -0.468,3.347 -0.613,4.68c-0.144,1.333 -0.379,2.845 -0.521,3.359l-0.258,0.935l-0.439,-1.731c-0.242,-0.951 -0.542,-1.922 -0.667,-2.159c-0.126,-0.235 -0.394,-0.991 -0.598,-1.68l-0.37,-1.252l1.782,-2.108c0.981,-1.159 1.784,-2.207 1.785,-2.328Zm46.459,0.34c0.237,0.33 1.059,1.335 1.827,2.234c0.768,0.898 1.396,1.817 1.396,2.042c-0,0.225 -0.377,1.488 -0.838,2.806c-0.46,1.319 -0.838,2.701 -0.84,3.072c-0.001,0.371 -0.095,0.617 -0.21,0.546c-0.302,-0.186 -0.695,-2.43 -1.099,-6.26c-0.194,-1.848 -0.424,-3.738 -0.51,-4.2l-0.156,-0.84l0.43,0.6Zm-11.709,84.014c0.628,-0.365 0.714,-0.317 1,0.552c0.147,0.442 0.313,2.845 0.369,5.34c0.118,5.184 0.577,14.703 0.731,15.162c0.174,0.52 -1.072,3.307 -1.923,4.301c-0.709,0.829 -2.63,1.993 -2.852,1.728c-0.194,-0.232 -1.609,-5.765 -1.87,-7.314c-0.239,-1.418 -0.216,-2.308 0.137,-5.4c0.688,-6.017 1.329,-10.314 1.621,-10.866c0.46,-0.872 2.352,-3.248 2.787,-3.503Zm-23.622,-0.254c0.186,0 0.702,0.405 1.146,0.9c0.445,0.495 1.159,1.449 1.587,2.119c0.725,1.135 0.822,1.549 1.413,6c0.428,3.232 0.643,5.986 0.661,8.501c0.026,3.533 -0.014,3.865 -0.779,6.6c-0.443,1.584 -0.888,2.968 -0.988,3.076c-0.316,0.34 -1.78,-0.447 -2.629,-1.413c-0.448,-0.51 -1.115,-1.591 -1.483,-2.402c-0.66,-1.455 -0.666,-1.508 -0.458,-4.327c0.184,-2.501 0.341,-6.575 0.589,-15.334c0.072,-2.519 0.375,-3.72 0.941,-3.72Zm28.516,-3.12c0.119,0 0.753,1.107 1.408,2.46c1.02,2.108 1.3,3.026 1.961,6.42c1.042,5.353 1.068,8.856 0.104,14.16c-0.94,5.168 -1.1,5.656 -1.823,5.575c-1.316,-0.148 -3.355,-2.468 -3.838,-4.371c-0.319,-1.256 -0.816,-13.352 -0.691,-16.804c0.099,-2.696 0.178,-3.132 0.782,-4.308c0.89,-1.732 1.827,-3.132 2.097,-3.132Zm-32.97,0.001c0.093,-0 0.515,0.513 0.939,1.14c0.424,0.626 1.018,1.679 1.32,2.339c0.531,1.161 0.548,1.404 0.507,7.44c-0.023,3.432 -0.152,7.956 -0.287,10.053c-0.245,3.784 -0.253,3.822 -1.087,5.079c-1.148,1.728 -2.382,2.644 -3.418,2.536c-0.398,-0.041 -0.467,-0.304 -1.321,-5.002c-1.103,-6.067 -1.1,-9.266 0.015,-14.822c0.706,-3.521 0.978,-4.395 1.991,-6.42c0.645,-1.289 1.249,-2.343 1.341,-2.343Zm22.171,-22.894c0.108,0.066 0.197,0.528 0.197,1.025c-0,1.283 0.75,5.275 2.191,11.668c1.149,5.094 1.245,5.761 1.25,8.64c0.004,2.446 -0.113,3.603 -0.542,5.356c-0.3,1.229 -0.593,2.189 -0.651,2.133c-0.422,-0.422 -1.553,-5.481 -1.761,-7.876c-0.135,-1.559 -0.57,-4.803 -0.967,-7.209c-0.396,-2.405 -0.722,-4.867 -0.726,-5.469c-0.009,-1.797 0.797,-8.397 1.009,-8.268Zm-11.741,2.225c0.155,-1.301 0.355,-2.232 0.444,-2.069c0.089,0.164 0.293,1.473 0.454,2.91c0.457,4.066 0.373,6.803 -0.338,11.046c-0.352,2.101 -0.737,5.104 -0.856,6.673c-0.216,2.848 -1.568,8.337 -1.952,7.926c-0.34,-0.364 -0.974,-4.097 -1.091,-6.418c-0.135,-2.702 0.123,-4.377 1.953,-12.692c0.607,-2.756 1.23,-6.075 1.386,-7.376Zm15.175,-14.127c0.27,-0.436 0.849,-0.26 1.072,0.327c0.306,0.804 0.866,6.001 1.569,14.548c0.331,4.026 0.72,8.516 0.865,9.977c0.301,3.045 0.034,6.099 -0.775,8.863c-0.464,1.582 -2.597,6.451 -2.757,6.291c-0.04,-0.04 0.089,-0.662 0.287,-1.382c0.511,-1.86 0.7,-6.224 0.361,-8.389c-0.154,-0.99 -0.822,-4.28 -1.483,-7.31c-1.49,-6.825 -1.936,-9.685 -1.966,-12.61c-0.022,-2.176 0.038,-2.458 1.326,-6.175c0.742,-2.142 1.418,-4.005 1.501,-4.14Zm-19.294,0.295c0.137,-0.362 0.374,-0.546 0.638,-0.497c0.305,0.056 0.755,1.052 1.66,3.677c0.682,1.98 1.366,4.173 1.519,4.873c0.481,2.191 -0.204,6.873 -2.518,17.207c-1.236,5.52 -1.356,9.053 -0.461,13.56c0.066,0.33 -0.26,-0.102 -0.723,-0.96c-1.861,-3.448 -3.001,-8.61 -2.677,-12.12c0.086,-0.924 0.473,-5.622 0.862,-10.44c0.723,-8.977 1.313,-14.282 1.7,-15.3Zm21.785,-0.54c0.529,0 1.226,0.101 1.55,0.224c1.053,0.401 2.339,1.743 3.098,3.235c0.633,1.244 0.772,1.852 0.938,4.084c0.367,4.963 0.901,13.944 1.049,17.657c0.082,2.046 0.304,5.328 0.493,7.294c0.189,1.965 0.342,4.071 0.34,4.68l-0.005,1.106l-0.735,-1.32c-1.661,-2.979 -4.55,-8.773 -4.777,-9.578c-0.133,-0.474 -0.46,-3.346 -0.725,-6.382c-0.265,-3.036 -0.697,-8.004 -0.961,-11.04c-0.461,-5.313 -0.847,-8.655 -1.104,-9.54c-0.101,-0.35 0.038,-0.42 0.839,-0.42Zm-23.282,0.002c0.851,-0.002 1.018,0.068 0.901,0.374c-0.396,1.033 -0.945,6.578 -2.302,23.272c-0.292,3.596 -0.639,4.608 -3.304,9.65c-1.169,2.212 -2.225,4.238 -2.347,4.502c-0.401,0.869 -0.41,-1.674 -0.023,-6c0.201,-2.244 0.429,-5.646 0.508,-7.56c0.148,-3.646 0.694,-12.207 1.06,-16.64c0.177,-2.143 0.344,-2.862 0.945,-4.083c1.162,-2.361 2.657,-3.513 4.562,-3.515Zm-9.17,-6.002c0.202,-1.447 0.357,-1.025 1.282,3.48c0.407,1.98 1.02,4.669 1.362,5.975c0.533,2.032 0.6,2.656 0.459,4.32c-0.09,1.07 -0.368,5.063 -0.619,8.873c-0.251,3.81 -0.495,6.966 -0.543,7.015c-0.047,0.047 -0.495,-1.603 -0.993,-3.668c-0.756,-3.129 -0.948,-4.459 -1.15,-7.975c-0.235,-4.097 -0.104,-15.839 0.202,-18.02Zm41.306,-0.72c0.314,-0.826 0.557,2.194 0.686,8.52c0.189,9.368 -0.087,13.39 -1.252,18.204c-1.051,4.345 -1.139,4.309 -1.386,-0.564c-0.091,-1.782 -0.327,-5.478 -0.526,-8.214l-0.361,-4.974l0.712,-3.066c0.391,-1.686 0.999,-4.524 1.351,-6.306c0.351,-1.782 0.7,-3.402 0.776,-3.6Zm-23.511,5.531c1.572,-0.83 1.556,-0.861 1.435,2.809c-0.091,2.748 -0.327,4.384 -1.407,9.777l-1.297,6.477l-0.297,-2.757c-0.419,-3.876 -1.103,-6.901 -2.457,-10.858c-0.643,-1.88 -1.243,-3.608 -1.334,-3.839c-0.14,-0.356 -0.024,-0.42 0.77,-0.42c1.191,0 3.438,-0.582 4.587,-1.189Zm4.592,4.105c-0.325,-2.987 -0.15,-4.716 0.455,-4.471c0.221,0.09 1.095,0.429 1.941,0.752c0.847,0.324 2.229,0.653 3.072,0.732c1.279,0.119 1.507,0.206 1.378,0.527c-0.085,0.211 -0.688,1.968 -1.339,3.904c-1.399,4.164 -2,6.788 -2.397,10.461c-0.16,1.485 -0.336,2.656 -0.39,2.602c-0.223,-0.224 -2.469,-12.205 -2.72,-14.507Zm5.032,-29.076c0.095,0 0.544,0.279 0.998,0.62c0.455,0.341 1.69,1.057 2.745,1.592c3.804,1.928 6.717,4.264 7.357,5.901c0.418,1.068 0.908,4.146 0.917,5.76c0.009,1.692 -0.546,4.42 -1.219,5.99c-0.535,1.248 -2.598,3.488 -3.936,4.271c-0.533,0.313 -1.64,0.74 -2.46,0.95c-3.555,0.911 -8.817,-1.035 -10.325,-3.819c-0.326,-0.602 -0.419,-1.598 -0.488,-5.185c-0.113,-5.944 0.145,-8.139 1.222,-10.408c0.463,-0.975 1.259,-2.237 1.768,-2.802c0.949,-1.054 3.114,-2.87 3.421,-2.87Zm-13.218,0.012c0.043,-0.006 0.529,0.299 1.08,0.679c1.443,0.993 3.145,2.892 3.865,4.313c1.173,2.316 1.338,3.509 1.338,9.696c-0,5.259 -0.039,5.795 -0.483,6.667c-1.172,2.295 -4.642,3.942 -8.286,3.931c-1.648,-0.005 -2.157,-0.113 -3.48,-0.74c-1.808,-0.856 -3.837,-2.782 -4.693,-4.453c-1.71,-3.34 -1.7,-10.106 0.018,-12.703c0.939,-1.418 3.594,-3.454 6.361,-4.877c1.388,-0.714 2.901,-1.569 3.363,-1.9c0.462,-0.331 0.875,-0.607 0.917,-0.613Zm-6.797,-1.711c0.987,-0.19 2.108,-0.038 4.026,0.547c0.894,0.273 1.685,0.592 1.758,0.711c0.21,0.341 -0.814,1.059 -3.144,2.203c-2.16,1.061 -4.526,2.683 -5.622,3.855c-0.32,0.343 -0.666,0.623 -0.769,0.623c-0.275,0 1.194,-4.096 2.183,-6.089c0.714,-1.441 0.962,-1.733 1.568,-1.85Zm24.24,0.132c1.806,-0.395 2.105,-0.408 2.855,-0.123c0.663,0.252 1.181,1.146 2.325,4.009c1.046,2.62 1.455,4.004 1.101,3.732c-0.155,-0.119 -1.028,-0.824 -1.941,-1.568c-0.913,-0.744 -2.587,-1.806 -3.72,-2.36c-2.03,-0.993 -3.845,-2.113 -3.855,-2.379c-0.01,-0.262 1.811,-1 3.235,-1.311Zm15.958,-10.913c0.146,0 0.546,0.297 0.889,0.66c0.909,0.962 2.209,3.908 2.771,6.278c1.448,6.109 2.946,11.974 3.677,14.393c0.952,3.149 0.969,3.292 0.405,3.454c-0.231,0.066 -0.593,0.192 -0.804,0.28c-0.317,0.131 -0.608,-0.488 -1.633,-3.466c-0.686,-1.995 -2.089,-5.429 -3.118,-7.633c-3.866,-8.281 -3.696,-7.811 -3.575,-9.86c0.111,-1.86 0.869,-4.106 1.388,-4.106Zm-54.38,0.6c0.765,-0.765 1.011,-0.755 1.427,0.06c0.453,0.888 0.875,2.958 0.875,4.292c-0,1.112 -0.452,2.308 -2.572,6.808c-2.14,4.54 -4.46,10.35 -5.24,13.122c-0.059,0.212 -0.292,0.217 -0.934,0.02c-0.47,-0.144 -0.854,-0.339 -0.854,-0.433c-0,-0.093 0.533,-2.046 1.184,-4.339c1.538,-5.413 2.323,-8.547 3.027,-12.074c0.612,-3.067 1.964,-6.332 3.087,-7.456Zm59.671,-2.88c1.005,-4.164 0.924,-4.014 1.494,-2.76c0.403,0.887 0.527,1.852 0.692,5.4c0.383,8.234 1.546,17.154 2.962,22.71c0.141,0.554 0.065,0.663 -0.623,0.903c-0.431,0.15 -0.863,0.191 -0.96,0.09c-0.567,-0.59 -4.144,-14.258 -4.495,-17.176c-0.268,-2.227 0.078,-5.633 0.93,-9.167Zm-65.7,-2.335c0.285,-0.755 0.582,-1.295 0.66,-1.2c0.079,0.096 0.513,1.633 0.966,3.415c0.762,3.001 0.823,3.515 0.824,6.96c0.001,3.694 -0.008,3.754 -1.247,8.64c-1.533,6.041 -2.832,10.536 -3.133,10.837c-0.185,0.185 -0.87,0.019 -1.679,-0.406c-0.034,-0.017 0.15,-0.854 0.407,-1.86c1.284,-5.02 2.35,-13.524 2.548,-20.331c0.117,-3.993 0.213,-4.882 0.654,-6.055Zm68.341,3.535c0.007,-1.011 0.303,-0.418 0.915,1.832c0.274,1.008 0.877,4.788 1.34,8.4c0.753,5.873 1.842,12.574 2.193,13.487c0.111,0.292 -0.482,0.624 -1.138,0.637c-0.42,0.009 -1.876,-7.827 -2.473,-13.316c-0.367,-3.375 -0.847,-9.696 -0.837,-11.04Zm-69.448,-0.6c0.07,0 0.055,1.593 -0.034,3.54c-0.293,6.425 -1.501,15.548 -2.642,19.943c-0.397,1.533 -0.425,1.567 -1.095,1.354c-0.438,-0.139 -0.503,-0.293 -0.39,-0.922c0.074,-0.415 0.304,-1.673 0.511,-2.795c0.207,-1.122 0.81,-5.334 1.341,-9.36c0.531,-4.026 1.077,-7.752 1.214,-8.28c0.567,-2.183 0.975,-3.48 1.095,-3.48Zm32.525,-7.74c0.589,-0.509 0.551,-0.507 1.016,-0.043c0.273,0.273 0.352,1.328 0.371,7.763c0.024,2.795 0.025,5.992 0.004,8.879c-0.012,7.814 -0.077,8.661 -0.389,8.661c-0.215,0 -1.376,-1.019 -2.58,-2.265c-1.883,-1.947 -2.483,-2.405 -4.289,-3.27c-1.155,-0.552 -2.1,-1.079 -2.1,-1.17c0,-0.091 0.334,-0.483 0.741,-0.87c1.195,-1.135 1.446,-1.874 1.66,-4.873c0.109,-1.536 0.32,-3.106 0.467,-3.49c0.577,-1.497 4.639,-8.925 5.099,-9.322Zm3.328,0.045c0.438,-0.438 0.561,-0.46 0.991,-0.175c0.269,0.18 1.618,2.537 2.998,5.238l2.508,4.912l0.194,2.773c0.208,2.988 0.467,3.746 1.673,4.892c0.755,0.718 0.967,1.335 0.459,1.335c-0.156,0 -1.159,0.424 -2.23,0.943c-1.619,0.783 -2.3,1.311 -4.047,3.135c-1.241,1.297 -2.11,2.046 -2.441,2.112c-0.049,0.033 -0.084,0.05 -0.102,0.05c-0.012,-0 -0.024,-0.025 -0.036,-0.074c-0.316,-0.206 -0.35,-1.69 -0.404,-12.347c-0.062,-12.178 -0.058,-12.299 0.437,-12.794Zm-21.282,-13.709c-0.112,-0.181 -0.016,-0.223 0.29,-0.125c0.251,0.081 1.213,0.375 2.137,0.654c2.056,0.622 4.598,0.521 7.09,-0.282c1.299,-0.418 1.711,-0.467 1.988,-0.238c0.344,0.286 5.238,8.88 6.081,10.68l0.434,0.925l-5.528,10.859c-0.179,0.461 -0.318,0.884 -0.43,1.303l-0.595,5.898l-0.857,0.785c-0.471,0.432 -1.006,0.785 -1.189,0.785c-0.193,-0 -0.691,-0.881 -1.188,-2.1c-0.47,-1.155 -1.297,-3.108 -1.838,-4.341c-0.54,-1.232 -1.407,-3.716 -1.926,-5.52c-0.519,-1.803 -1.607,-5.331 -2.417,-7.839c-1.392,-4.31 -1.485,-4.741 -1.678,-7.865c-0.113,-1.819 -0.281,-3.429 -0.374,-3.579Zm40.179,-0.196c0.039,0 0.006,1.377 -0.074,3.06c-0.159,3.352 -0.212,3.582 -2.416,10.38c-0.835,2.574 -1.691,5.365 -1.902,6.202c-0.522,2.065 -1.829,5.632 -2.701,7.37c-0.395,0.785 -0.961,2.103 -1.26,2.928c-0.299,0.825 -0.673,1.5 -0.831,1.5c-0.158,0 -0.691,-0.351 -1.183,-0.78c-0.317,-0.276 -0.566,-0.562 -0.758,-0.895l-0.177,-0.162l-0.018,-0.238c-0.276,-0.679 -0.381,-1.557 -0.386,-2.855c-0.009,-2.322 -0.529,-3.754 -3.372,-9.3c-1.896,-3.697 -2.642,-5.384 -2.547,-5.76c0.163,-0.645 5.577,-10.439 6.097,-11.03c0.455,-0.516 0.266,-0.525 2.441,0.11c2.517,0.734 5.849,0.732 7.695,-0.004c0.726,-0.289 1.352,-0.526 1.392,-0.526Zm6.778,6c0.115,0 0.506,0.506 0.869,1.125c0.83,1.416 1.662,4.265 2.01,6.883c0.313,2.349 0.166,2.796 -1.42,4.332l-0.971,0.94l-0.272,-0.7c-0.659,-1.694 -1.426,-5.329 -1.426,-6.761c-0,-1.671 0.862,-5.819 1.21,-5.819Zm-55.162,2.76c0.643,-1.643 1.41,-2.838 1.659,-2.589c0.114,0.114 0.424,1.057 0.69,2.096c0.653,2.553 0.616,4.682 -0.133,7.635c-0.918,3.621 -0.878,3.583 -2.287,2.195c-1.176,-1.158 -1.177,-1.16 -1.177,-2.762c-0,-1.85 0.567,-4.839 1.248,-6.575Zm50.123,-15.48c0.117,0 0.591,0.378 1.052,0.839c0.665,0.665 1.018,1.401 1.696,3.54c0.472,1.486 1.078,3.795 1.348,5.132l0.49,2.43l-0.488,1.583c-0.269,0.871 -0.608,2.477 -0.754,3.57c-0.287,2.162 -0.006,4.202 0.971,7.042c0.261,0.76 0.434,1.424 0.384,1.474c-0.05,0.05 -0.69,-0.571 -1.421,-1.379c-1.712,-1.892 -2.784,-3.968 -3.899,-7.551c-0.889,-2.855 -0.895,-2.906 -0.752,-5.88c0.079,-1.65 0.306,-4.026 0.504,-5.28c0.199,-1.254 0.427,-3.009 0.509,-3.9c0.081,-0.891 0.243,-1.62 0.36,-1.62Zm-43.41,0.001c0.088,-0 0.227,0.728 0.307,1.619c0.081,0.891 0.325,2.808 0.543,4.26c0.218,1.452 0.404,3.99 0.412,5.64c0.016,2.852 -0.028,3.139 -0.903,5.81c-0.507,1.546 -1.317,3.452 -1.8,4.237c-0.99,1.604 -2.814,3.816 -2.998,3.633c-0.066,-0.066 0.147,-1.092 0.472,-2.28c0.515,-1.876 0.579,-2.523 0.488,-4.92c-0.075,-1.973 -0.256,-3.223 -0.637,-4.385c-0.479,-1.462 -0.505,-1.78 -0.261,-3.185c0.363,-2.082 1.843,-7.14 2.45,-8.367c0.441,-0.895 1.53,-2.059 1.927,-2.062Zm46.74,2.865c0.375,0.267 1.499,1.249 2.497,2.182c2.064,1.926 2.409,2.627 3.312,6.724c0.764,3.46 0.798,8.011 0.074,9.588l-0.496,1.08l-0.398,-2.568c-0.467,-3.019 -1.07,-4.856 -2.19,-6.672c-0.57,-0.925 -1.08,-2.357 -1.706,-4.788c-0.491,-1.908 -1.092,-4.045 -1.334,-4.75l-0.441,-1.281l0.682,0.485Zm-49.627,-0.466c0.099,0 -0.017,0.572 -0.257,1.272c-0.241,0.699 -0.834,2.809 -1.319,4.689c-0.574,2.23 -1.127,3.806 -1.59,4.536c-1.241,1.957 -2.382,5.746 -2.392,7.938c-0.004,0.966 -0.139,1.373 -0.368,1.217l-0.022,0.148l-0.088,-0.257c-0.129,-0.164 -0.281,-0.471 -0.45,-0.923c-0.861,-2.3 -0.68,-5.644 0.597,-11.06l0.623,-2.64l2.543,-2.46c1.398,-1.352 2.623,-2.459 2.723,-2.46Zm37.734,-13.428c0.421,-0.011 0.424,0.024 0.06,0.588c-0.214,0.33 -0.54,0.843 -0.726,1.14c-0.533,0.853 -1.699,4.759 -2.668,8.94c-1.055,4.552 -1.912,7.079 -3.175,9.362c-4.517,8.162 -5.507,9.791 -5.828,9.593c-0.142,-0.089 -0.231,-4.215 -0.231,-10.749l0,-10.606l0.69,-1.457c0.858,-1.815 1.972,-3.101 3.247,-3.753c1.245,-0.636 8.033,-3.041 8.631,-3.058Zm-26.488,0.079c-0,-0.178 1.254,0.183 4.343,1.25c1.663,0.575 3.507,1.252 4.099,1.505c1.21,0.519 2.538,1.941 3.364,3.601c0.157,0.315 0.269,0.545 0.351,0.968l0.203,0.385l0.069,10.897c0.028,4.382 0.036,7.023 0.007,8.577c-0.032,2.103 -0.12,2.424 -0.298,2.245c-0.197,-0.198 -1.242,-1.925 -2.324,-3.839c-4.548,-8.046 -4.893,-8.882 -6.579,-15.96c-1.117,-4.687 -1.896,-7.195 -2.636,-8.485c-0.329,-0.574 -0.599,-1.089 -0.599,-1.144Zm-7.344,10.469c0.2,0.001 1.277,0.914 2.394,2.03c2.141,2.142 3.773,3.315 5.85,4.208c0.693,0.297 1.26,0.632 1.26,0.742c-0,0.364 -2.006,0.78 -3.84,0.797c-1.936,0.017 -3.849,-0.497 -4.89,-1.316c-0.624,-0.491 -0.664,-0.684 -0.996,-4.721c-0.117,-1.422 -0.086,-1.725 0.199,-1.739l0.003,-0.001l0.002,0l0.018,0Zm41.421,0c0.134,0 0.243,0.205 0.243,0.455c-0,1.299 -0.295,3.597 -0.582,4.898c-0.023,0.165 -0.042,0.288 -0.059,0.357c-0.018,0.072 -0.047,0.143 -0.087,0.214c-0.057,0.185 -0.111,0.314 -0.16,0.368c-0.734,0.812 -2.941,1.457 -4.992,1.46c-1.858,0.002 -3.961,-0.391 -3.959,-0.741c0.001,-0.094 1.013,-0.686 2.25,-1.315c1.755,-0.893 2.783,-1.646 4.677,-3.42c1.334,-1.252 2.536,-2.276 2.669,-2.276Zm-34.604,-7.436c0.173,-0.002 0.636,0.347 1.03,0.776c0.814,0.888 1.397,2.675 2.72,8.34c0.478,2.046 0.937,3.979 1.021,4.297c0.147,0.561 0.123,0.572 -0.906,0.409c-2.003,-0.317 -4.909,-1.949 -6.81,-3.824c-1.973,-1.947 -3.17,-3.971 -2.78,-4.7c0.355,-0.663 5.358,-5.293 5.725,-5.298Zm27.785,-0.004c0.209,0 1.613,1.206 3.12,2.679c1.275,1.245 2.136,2.179 2.517,2.724l0.269,0.267l-0.054,0.128c0.006,0.023 0.009,0.043 0.009,0.061c-0.003,1.481 -3.77,5.364 -6.479,6.679c-1.783,0.866 -3.986,1.556 -4.219,1.323c-0.207,-0.207 2.521,-10.964 3.034,-11.971c0.516,-1.01 1.122,-1.703 1.608,-1.857c0.051,-0.022 0.097,-0.033 0.139,-0.033c0.003,0 0.006,0.001 0.009,0.002c0.016,-0.001 0.032,-0.002 0.047,-0.002Zm-0.138,-1.639c-0,-1.039 5.056,-4.438 6.304,-4.238c0.366,0.059 1.5,0.454 2.52,0.878c2.534,1.054 3.974,2.514 5.423,5.498c1.647,3.395 1.917,4.73 1.77,8.741c-0.089,2.399 -0.076,3.645 -0.471,3.896l-0.066,0.333l-0.423,-0.378c-0.56,-0.279 -1.489,-1.183 -3.06,-2.63c-4.386,-4.042 -11.997,-11.718 -11.997,-12.1Zm-33.551,-4.356c0.093,-0.003 1.119,0.541 2.28,1.208c2.333,1.341 3.671,2.491 3.671,3.157c-0.001,0.802 -15.082,15.427 -15.489,15.021c-0.312,-0.312 -0.667,-3.236 -0.664,-5.471c0.004,-3.029 0.646,-5.284 2.355,-8.275c1.268,-2.22 2.001,-3.054 3.42,-3.89c0.891,-0.525 3.953,-1.736 4.427,-1.75Zm21.431,-15.279c1.491,-0.449 1.774,-0.4 1.941,0.334c1.117,4.906 1.866,6.664 3.501,8.22c0.78,0.742 2.716,1.907 6.18,3.72c2.773,1.452 5.046,2.713 5.051,2.801c0.007,0.178 -1.921,0.935 -9.462,3.712c-4.759,1.753 -5.094,1.917 -6.253,3.07c-0.674,0.669 -1.402,1.487 -1.619,1.817l-0.394,0.6l-0.013,-1.053c-0.006,-0.579 0.22,-2.507 0.504,-4.285l0.515,-3.232l-0.528,-2.915c-0.452,-2.496 -0.517,-3.603 -0.455,-7.708l-0,-0l-0.107,-4.445l0.175,-0.076l0.004,-0.271l0.96,-0.289Zm-5.744,1.973c0.507,-2.451 0.456,-2.376 1.487,-2.187c0.493,0.09 1.153,0.328 1.465,0.53l0.103,0.066l0.169,0.059l-0,0.05l0.296,0.19l-0.124,5.437c-0.087,3.805 -0.237,5.868 -0.499,6.876c-0.471,1.805 -0.483,3.134 -0.055,5.943c0.496,3.246 0.651,4.979 0.444,4.959c-0.1,-0.01 -0.62,-0.576 -1.155,-1.259c-0.535,-0.683 -1.306,-1.466 -1.713,-1.74c-0.408,-0.275 -2.778,-1.237 -5.267,-2.138c-7.202,-2.607 -9.46,-3.509 -9.328,-3.723c0.068,-0.11 2.029,-1.203 4.357,-2.428c2.328,-1.224 4.845,-2.622 5.593,-3.105c2.121,-1.371 3.437,-3.716 4.227,-7.53Z" style="fill:#434343;"/><path id="no_muscles_rear" d="M62.639,179.427c0.351,0.484 1.028,1.222 1.504,1.639c0.476,0.417 1.075,0.825 1.331,0.906c0.452,0.144 0.446,0.213 -0.201,2.279c-1.52,4.848 -2.959,12.937 -3.341,18.782c-0.321,4.913 0.038,6.216 1.81,6.57c1.129,0.226 1.538,-0.336 1.538,-2.111l-0,-1.461l1.513,1.418c0.832,0.78 1.869,1.715 2.306,2.079c0.664,0.554 0.766,0.768 0.63,1.32c-0.09,0.362 -0.236,0.728 -0.326,0.813c-0.09,0.085 -1.638,0.922 -3.44,1.86c-2.749,1.431 -3.465,1.706 -4.44,1.705c-1.668,-0.002 -2.864,-0.398 -3.461,-1.147c-0.493,-0.618 -0.51,-0.795 -0.334,-3.412c0.274,-4.053 0.262,-4.261 -0.36,-6.407l-0.57,-1.968l0.568,-1.992c0.492,-1.727 0.568,-2.505 0.563,-5.833l-0.006,-3.84l0.421,2.16c0.787,4.034 1.218,8.52 1.135,11.821c-0.051,2.048 0.006,3.151 0.161,3.1c1.092,-0.365 0.288,-11.245 -1.316,-17.801c-0.387,-1.584 -0.859,-3.548 -1.049,-4.364l-0.345,-1.484l1.271,-0.622c1.4,-0.685 2.156,-1.54 3.145,-3.555l0.655,-1.336l0.638,0.881Zm-28.223,0.56c0.388,0.784 1.128,1.848 1.645,2.364c0.516,0.517 1.308,1.073 1.759,1.236c0.515,0.186 0.82,0.455 0.82,0.724c-0,0.235 -0.374,2.022 -0.832,3.972c-1.064,4.534 -1.748,8.785 -1.999,12.424c-0.246,3.558 -0.108,7.08 0.276,7.079c0.196,-0.001 0.278,-1.253 0.286,-4.38c0.01,-3.634 0.126,-5.073 0.686,-8.459c0.371,-2.244 0.724,-4.132 0.785,-4.196c0.06,-0.064 0.035,1.34 -0.058,3.12c-0.152,2.935 -0.116,3.426 0.383,5.276c0.777,2.878 0.808,3.527 0.247,5.138c-0.272,0.779 -0.494,1.663 -0.494,1.962c-0,0.3 -0.162,0.708 -0.36,0.906c-0.444,0.444 -0.463,0.659 -0.044,0.498c0.238,-0.092 0.383,0.484 0.59,2.347c0.151,1.358 0.213,2.767 0.136,3.132c-0.295,1.406 -2.124,2.281 -4.265,2.04c-1.001,-0.113 -6.509,-2.711 -7.397,-3.489c-0.673,-0.59 -0.546,-1.837 0.24,-2.348c0.363,-0.236 1.335,-1.076 2.16,-1.866l1.5,-1.436l-0,1.461c-0,2.141 1.031,2.864 2.47,1.731c0.982,-0.772 1.215,-1.884 1.028,-4.896c-0.428,-6.859 -2.065,-16.064 -3.697,-20.787l-0.459,-1.328l1.166,-0.65c0.74,-0.414 1.45,-1.08 1.943,-1.826l0.778,-1.175l0.707,1.426Zm-4.551,6.749c-0.868,-5.062 -0.781,-5.223 0.471,-0.874c2.295,7.976 3.853,20.736 2.739,22.441c-0.429,0.658 -1.164,0.975 -1.613,0.697c-0.15,-0.092 -0.328,-0.916 -0.396,-1.83c-0.068,-0.915 -0.238,-2.419 -0.377,-3.343c-0.209,-1.373 -0.185,-1.949 0.128,-3.154c0.211,-0.812 0.383,-2.054 0.383,-2.76c-0.001,-1.781 -0.636,-7.1 -1.335,-11.177Zm36.506,-4.089c0.306,-0.978 0.184,0.177 -0.4,3.791c-0.364,2.251 -0.847,5.771 -1.074,7.825c-0.357,3.232 -0.369,3.93 -0.09,5.208c0.362,1.654 0.383,3.467 0.079,6.996c-0.202,2.354 -0.218,2.402 -0.838,2.473c-0.454,0.053 -0.775,-0.108 -1.14,-0.572c-0.437,-0.556 -0.508,-0.967 -0.508,-2.954c0.001,-5.796 1.688,-15.468 3.971,-22.767Zm-5.041,-36.003c0.03,0.035 0.65,1.253 1.376,2.707l1.322,2.644l-1.183,1.796c-0.65,0.988 -1.27,2.12 -1.377,2.516l-0.194,0.72l-0.385,-0.9c-0.426,-0.997 -0.743,-1.095 -1.598,-0.497c-0.552,0.387 -0.567,0.385 -0.371,-0.06c0.76,-1.723 1.85,-5.415 2.081,-7.047c0.151,-1.067 0.299,-1.911 0.329,-1.879Zm-26.479,2.448c0.228,1.387 0.748,3.361 1.156,4.388c0.407,1.027 0.806,2.015 0.884,2.197c0.104,0.24 -0.026,0.219 -0.478,-0.077c-0.774,-0.507 -1.483,-0.202 -1.72,0.74c-0.155,0.619 -0.188,0.591 -0.757,-0.638c-0.328,-0.707 -0.969,-1.805 -1.425,-2.439l-0.829,-1.154l2.756,-5.537l0.413,2.52Zm-26.575,-46.178c0.204,-0.33 0.082,-0.359 2.59,0.598c3.919,1.497 3.683,1.316 3.986,3.058c0.406,2.332 0.333,3.484 -0.453,7.079c-1.577,7.217 -1.943,8.479 -2.536,8.749c-0.304,0.139 -0.707,0.193 -0.897,0.12c-0.292,-0.112 -0.264,-0.49 0.185,-2.491c0.85,-3.789 0.868,-3.92 0.541,-3.92c-0.189,0 -0.596,1.382 -1.115,3.78c-1.002,4.628 -1.138,5.042 -1.715,5.226c-1.151,0.365 -1.173,-0.111 -0.222,-4.806c0.733,-3.619 0.9,-5.206 0.504,-4.788c-0.12,0.126 -0.618,2.335 -1.107,4.908c-0.49,2.574 -0.991,4.869 -1.113,5.1c-0.254,0.482 -0.526,0.522 -1.18,0.172c-0.638,-0.342 -0.603,-1.157 0.256,-5.911c0.756,-4.188 0.851,-5.121 0.517,-5.121c-0.112,0 -0.502,1.806 -0.868,4.013c-0.366,2.207 -0.717,4.151 -0.783,4.32c-0.167,0.436 -1.186,0.381 -1.36,-0.073c-0.246,-0.64 -0.145,-2.198 0.442,-6.82c0.314,-2.475 0.473,-4.536 0.358,-4.658c-0.119,-0.126 -0.668,0.298 -1.306,1.008c-0.606,0.673 -1.313,1.292 -1.571,1.373c-0.635,0.202 -1.429,-0.077 -1.429,-0.5c-0,-0.19 1.087,-2.068 2.416,-4.173c2.278,-3.61 2.51,-3.889 4.061,-4.912c0.905,-0.596 1.715,-1.195 1.799,-1.331Zm78.76,-0.232c0.021,-0.007 0.615,0.357 1.32,0.81c2.325,1.493 3.03,2.285 5.374,6.037c1.907,3.053 2.266,3.774 2.024,4.065c-0.543,0.654 -1.275,0.378 -2.681,-1.013c-0.759,-0.752 -1.459,-1.288 -1.554,-1.193c-0.096,0.096 -0.041,1.224 0.122,2.507c1.138,8.971 1.136,9.412 -0.051,9.412c-0.529,0 -0.584,-0.18 -1.247,-4.095c-0.381,-2.252 -0.77,-4.22 -0.865,-4.373c-0.415,-0.671 -0.445,0.183 -0.077,2.147c0.219,1.166 0.608,3.405 0.864,4.975c0.423,2.591 0.431,2.906 0.095,3.42c-0.429,0.654 -0.891,0.723 -1.327,0.197c-0.29,-0.348 -1.887,-8.029 -1.905,-9.157c-0.008,-0.499 -0.4,-0.962 -0.625,-0.737c-0.058,0.058 0.213,1.824 0.602,3.924c0.389,2.101 0.737,4.089 0.774,4.419c0.133,1.205 -0.715,1.625 -1.335,0.66c-0.19,-0.297 -0.723,-2.303 -1.184,-4.459c-0.461,-2.155 -0.901,-3.982 -0.979,-4.06c-0.406,-0.406 -0.351,0.408 0.208,3.051c0.339,1.608 0.555,3.024 0.48,3.146c-0.22,0.356 -0.794,0.257 -1.272,-0.221c-0.407,-0.407 -0.718,-1.529 -2.698,-9.743c-0.525,-2.181 -0.567,-3.954 -0.14,-6.009l0.299,-1.434l2.871,-1.131l2.907,-1.145Zm-56.773,-11.655c0.22,-0.222 2.429,-1.066 2.55,-0.975c0.029,0.023 -0.366,1.014 -0.879,2.204c-3.451,8.005 -4.084,15.183 -1.765,20.011c0.714,1.487 3.167,4.053 4.337,4.538l0.762,0.315l-1.187,0.591c-1.235,0.616 -2.527,2.108 -3.184,3.676l-0.351,0.84l-0.387,-1.32c-0.597,-2.033 -2.353,-10.516 -2.489,-12.023c-0.068,-0.739 0.048,-2.467 0.256,-3.84c0.208,-1.373 0.547,-3.793 0.754,-5.377c0.549,-4.214 1.31,-8.364 1.583,-8.64Zm33.378,-0.748c0.401,0.081 1.014,0.282 1.362,0.449c0.557,0.267 0.681,0.559 1.043,2.461c0.225,1.187 0.812,5.198 1.304,8.913l0.894,6.756l-0.664,3.084c-1.241,5.77 -2.087,9.564 -2.211,9.925c-0.086,0.247 -0.229,0.115 -0.455,-0.42c-0.65,-1.534 -1.825,-2.948 -3.012,-3.626l-1.191,-0.68l1.321,-0.877c1.772,-1.177 3.329,-3.217 4.144,-5.432c0.612,-1.664 0.664,-2.077 0.663,-5.285c-0.001,-4.808 -0.688,-7.833 -3.019,-13.287l-0.909,-2.127l0.73,0.146Zm-47.604,-20.251c0.09,0.001 0.352,0.461 0.583,1.024c0.232,0.562 1.176,1.883 2.1,2.935c1.098,1.251 1.812,2.313 2.064,3.072l0.385,1.16l-0.972,0.832c-0.58,0.496 -1.315,1.519 -1.824,2.536c-0.469,0.938 -0.853,1.66 -0.853,1.606c-0,-1.064 -0.702,-4.903 -1.353,-7.406c-0.776,-2.977 -0.822,-3.342 -0.568,-4.5c0.151,-0.693 0.349,-1.259 0.438,-1.259Zm63.069,1.111c0.244,-0.589 0.508,-1.032 0.586,-0.984c0.079,0.048 0.291,0.536 0.472,1.084c0.307,0.93 0.27,1.236 -0.559,4.632c-0.488,2 -0.998,4.439 -1.132,5.421c-0.134,0.983 -0.275,1.817 -0.312,1.854c-0.037,0.036 -0.37,-0.592 -0.74,-1.398c-0.37,-0.806 -1.137,-1.93 -1.705,-2.497c-0.939,-0.94 -1.016,-1.105 -0.852,-1.834c0.27,-1.195 0.624,-1.746 2.286,-3.557c0.832,-0.906 1.712,-2.13 1.956,-2.721Zm-35.953,-70.207c2.187,-1.171 6.455,-1.252 8.828,-0.168c3.338,1.524 4.738,4.047 4.698,8.465c-0.021,2.353 -1.318,11.843 -1.71,12.516c-0.129,0.221 -0.237,0.271 -0.242,0.111c-0.011,-0.44 -1.427,-1.967 -2.191,-2.361c-0.858,-0.444 -1.989,-0.442 -3.478,0.007c-1.054,0.318 -1.323,0.315 -2.558,-0.031c-0.805,-0.226 -1.742,-0.328 -2.253,-0.245c-1.194,0.194 -2.564,1.148 -3.031,2.112l-0.386,0.798l-0.224,-0.594c-0.325,-0.86 -1.726,-10.721 -1.726,-12.144c-0,-1.763 0.445,-3.878 1.08,-5.131c0.546,-1.077 2.197,-2.802 3.193,-3.335Zm13.867,12.035c0.14,-0.894 0.925,-1.102 1.176,-0.311c0.18,0.565 -0.244,3.045 -0.711,4.163c-0.324,0.774 -0.999,1.539 -1.186,1.342c-0.049,-0.052 0.065,-1.066 0.255,-2.254c0.189,-1.188 0.398,-2.511 0.466,-2.94Zm-18.904,-0.78c0.385,0 0.494,0.307 0.74,2.1c0.158,1.155 0.351,2.505 0.427,3c0.204,1.33 -0.319,1.142 -1.007,-0.362c-0.594,-1.298 -1.01,-3.699 -0.755,-4.363c0.079,-0.206 0.347,-0.375 0.595,-0.375Zm4.487,8.44c0.801,-0.629 1.149,-0.664 0.995,-0.1c-0.062,0.231 -0.294,1.176 -0.514,2.1c-0.22,0.924 -0.707,2.328 -1.082,3.12l-0.681,1.44l-0.02,-2.228c-0.024,-2.505 0.285,-3.531 1.302,-4.332Zm9.479,-0.34c-0.003,-0.283 0.325,-0.212 0.906,0.195c0.899,0.629 1.257,1.666 1.417,4.104c0.168,2.557 -0.005,2.74 -0.863,0.914c-0.426,-0.907 -1.454,-4.577 -1.46,-5.213Zm12.157,55.26c0.065,0 0.046,0.684 -0.044,1.519c-0.115,1.084 -0.023,2.304 0.323,4.26c0.416,2.348 1.086,8.637 0.933,8.76c-0.03,0.022 -1.387,-0.396 -3.017,-0.929l-2.966,-0.971l0.116,-0.867c0.064,-0.478 0.819,-2.43 1.677,-4.34c0.859,-1.91 1.853,-4.363 2.21,-5.452c0.357,-1.089 0.702,-1.98 0.768,-1.98Zm-32.682,0c0.046,0.001 0.374,0.891 0.729,1.98c0.355,1.089 1.345,3.585 2.2,5.547c0.854,1.961 1.611,3.925 1.682,4.362c0.125,0.767 0.093,0.805 -0.919,1.081c-0.577,0.158 -1.893,0.555 -2.924,0.883c-1.031,0.328 -1.909,0.558 -1.95,0.512c-0.041,-0.047 0.012,-0.679 0.118,-1.405c0.105,-0.726 0.2,-2.096 0.209,-3.045c0.01,-0.948 0.195,-2.514 0.41,-3.48c0.227,-1.012 0.386,-2.745 0.377,-4.095c-0.008,-1.287 0.022,-2.34 0.068,-2.34Zm-6.839,-3.7c0.001,-0.121 0.058,-0.164 0.126,-0.096c0.068,0.067 -0.034,1.139 -0.227,2.38c-0.192,1.241 -0.468,3.347 -0.613,4.68c-0.144,1.333 -0.379,2.845 -0.521,3.359l-0.258,0.935l-0.439,-1.731c-0.242,-0.951 -0.542,-1.922 -0.667,-2.159c-0.126,-0.235 -0.394,-0.991 -0.598,-1.68l-0.37,-1.252l1.782,-2.108c0.981,-1.159 1.784,-2.207 1.785,-2.328Zm46.459,0.34c0.237,0.33 1.059,1.335 1.827,2.234c0.768,0.898 1.396,1.817 1.396,2.042c-0,0.225 -0.377,1.488 -0.838,2.806c-0.46,1.319 -0.838,2.701 -0.84,3.072c-0.001,0.371 -0.095,0.617 -0.21,0.546c-0.302,-0.186 -0.695,-2.43 -1.099,-6.26c-0.194,-1.848 -0.424,-3.738 -0.51,-4.2l-0.156,-0.84l0.43,0.6Z" style="fill:#434343;"/><path id="calves_rear" d="M59.468,156.201c0.628,-0.365 0.714,-0.317 1,0.552c0.147,0.442 0.313,2.845 0.369,5.34c0.118,5.184 0.577,14.703 0.731,15.162c0.174,0.52 -1.072,3.307 -1.923,4.301c-0.709,0.829 -2.63,1.993 -2.852,1.728c-0.194,-0.232 -1.609,-5.765 -1.87,-7.314c-0.239,-1.418 -0.216,-2.308 0.137,-5.4c0.688,-6.017 1.329,-10.314 1.621,-10.866c0.46,-0.872 2.352,-3.248 2.787,-3.503Zm-23.622,-0.254c0.186,0 0.702,0.405 1.146,0.9c0.445,0.495 1.159,1.449 1.587,2.119c0.725,1.135 0.822,1.549 1.413,6c0.428,3.232 0.643,5.986 0.661,8.501c0.026,3.533 -0.014,3.865 -0.779,6.6c-0.443,1.584 -0.888,2.968 -0.988,3.076c-0.316,0.34 -1.78,-0.447 -2.629,-1.413c-0.448,-0.51 -1.115,-1.591 -1.483,-2.402c-0.66,-1.455 -0.666,-1.508 -0.458,-4.327c0.184,-2.501 0.341,-6.575 0.589,-15.334c0.072,-2.519 0.375,-3.72 0.941,-3.72Zm28.516,-3.12c0.119,0 0.753,1.107 1.408,2.46c1.02,2.108 1.3,3.026 1.961,6.42c1.042,5.353 1.068,8.856 0.104,14.16c-0.94,5.168 -1.1,5.656 -1.823,5.575c-1.316,-0.148 -3.355,-2.468 -3.838,-4.371c-0.319,-1.256 -0.816,-13.352 -0.691,-16.804c0.099,-2.696 0.178,-3.132 0.782,-4.308c0.89,-1.732 1.827,-3.132 2.097,-3.132Zm-32.97,0.001c0.093,-0 0.515,0.513 0.939,1.14c0.424,0.626 1.018,1.679 1.32,2.339c0.531,1.161 0.548,1.404 0.507,7.44c-0.023,3.432 -0.152,7.956 -0.287,10.053c-0.245,3.784 -0.253,3.822 -1.087,5.079c-1.148,1.728 -2.382,2.644 -3.418,2.536c-0.398,-0.041 -0.467,-0.304 -1.321,-5.002c-1.103,-6.067 -1.1,-9.266 0.015,-14.822c0.706,-3.521 0.978,-4.395 1.991,-6.42c0.645,-1.289 1.249,-2.343 1.341,-2.343Z" style="fill:#757575;"/><path id="hamstrings" d="M53.563,129.934c0.108,0.066 0.197,0.528 0.197,1.025c-0,1.283 0.75,5.275 2.191,11.668c1.149,5.094 1.245,5.761 1.25,8.64c0.004,2.446 -0.113,3.603 -0.542,5.356c-0.3,1.229 -0.593,2.189 -0.651,2.133c-0.422,-0.422 -1.553,-5.481 -1.761,-7.876c-0.135,-1.559 -0.57,-4.803 -0.967,-7.209c-0.396,-2.405 -0.722,-4.867 -0.726,-5.469c-0.009,-1.797 0.797,-8.397 1.009,-8.268Zm-11.741,2.225c0.155,-1.301 0.355,-2.232 0.444,-2.069c0.089,0.164 0.293,1.473 0.454,2.91c0.457,4.066 0.373,6.803 -0.338,11.046c-0.352,2.101 -0.737,5.104 -0.856,6.673c-0.216,2.848 -1.568,8.337 -1.952,7.926c-0.34,-0.364 -0.974,-4.097 -1.091,-6.418c-0.135,-2.702 0.123,-4.377 1.953,-12.692c0.607,-2.756 1.23,-6.075 1.386,-7.376Zm15.175,-14.127c0.27,-0.436 0.849,-0.26 1.072,0.327c0.306,0.804 0.866,6.001 1.569,14.548c0.331,4.026 0.72,8.516 0.865,9.977c0.301,3.045 0.034,6.099 -0.775,8.863c-0.464,1.582 -2.597,6.451 -2.757,6.291c-0.04,-0.04 0.089,-0.662 0.287,-1.382c0.511,-1.86 0.7,-6.224 0.361,-8.389c-0.154,-0.99 -0.822,-4.28 -1.483,-7.31c-1.49,-6.825 -1.936,-9.685 -1.966,-12.61c-0.022,-2.176 0.038,-2.458 1.326,-6.175c0.742,-2.142 1.418,-4.005 1.501,-4.14Zm-19.294,0.295c0.137,-0.362 0.374,-0.546 0.638,-0.497c0.305,0.056 0.755,1.052 1.66,3.677c0.682,1.98 1.366,4.173 1.519,4.873c0.481,2.191 -0.204,6.873 -2.518,17.207c-1.236,5.52 -1.356,9.053 -0.461,13.56c0.066,0.33 -0.26,-0.102 -0.723,-0.96c-1.861,-3.448 -3.001,-8.61 -2.677,-12.12c0.086,-0.924 0.473,-5.622 0.862,-10.44c0.723,-8.977 1.313,-14.282 1.7,-15.3Zm21.785,-0.54c0.529,0 1.226,0.101 1.55,0.224c1.053,0.401 2.339,1.743 3.098,3.235c0.633,1.244 0.772,1.852 0.938,4.084c0.367,4.963 0.901,13.944 1.049,17.657c0.082,2.046 0.304,5.328 0.493,7.294c0.189,1.965 0.342,4.071 0.34,4.68l-0.005,1.106l-0.735,-1.32c-1.661,-2.979 -4.55,-8.773 -4.777,-9.578c-0.133,-0.474 -0.46,-3.346 -0.725,-6.382c-0.265,-3.036 -0.697,-8.004 -0.961,-11.04c-0.461,-5.313 -0.847,-8.655 -1.104,-9.54c-0.101,-0.35 0.038,-0.42 0.839,-0.42Zm-23.282,0.002c0.851,-0.002 1.018,0.068 0.901,0.374c-0.396,1.033 -0.945,6.578 -2.302,23.272c-0.292,3.596 -0.639,4.608 -3.304,9.65c-1.169,2.212 -2.225,4.238 -2.347,4.502c-0.401,0.869 -0.41,-1.674 -0.023,-6c0.201,-2.244 0.429,-5.646 0.508,-7.56c0.148,-3.646 0.694,-12.207 1.06,-16.64c0.177,-2.143 0.344,-2.862 0.945,-4.083c1.162,-2.361 2.657,-3.513 4.562,-3.515Zm-9.17,-6.002c0.202,-1.447 0.357,-1.025 1.282,3.48c0.407,1.98 1.02,4.669 1.362,5.975c0.533,2.032 0.6,2.656 0.459,4.32c-0.09,1.07 -0.368,5.063 -0.619,8.873c-0.251,3.81 -0.495,6.966 -0.543,7.015c-0.047,0.047 -0.495,-1.603 -0.993,-3.668c-0.756,-3.129 -0.948,-4.459 -1.15,-7.975c-0.235,-4.097 -0.104,-15.839 0.202,-18.02Zm41.306,-0.72c0.314,-0.826 0.557,2.194 0.686,8.52c0.189,9.368 -0.087,13.39 -1.252,18.204c-1.051,4.345 -1.139,4.309 -1.386,-0.564c-0.091,-1.782 -0.327,-5.478 -0.526,-8.214l-0.361,-4.974l0.712,-3.066c0.391,-1.686 0.999,-4.524 1.351,-6.306c0.351,-1.782 0.7,-3.402 0.776,-3.6Zm-23.511,5.531c1.572,-0.83 1.556,-0.861 1.435,2.809c-0.091,2.748 -0.327,4.384 -1.407,9.777l-1.297,6.477l-0.297,-2.757c-0.419,-3.876 -1.103,-6.901 -2.457,-10.858c-0.643,-1.88 -1.243,-3.608 -1.334,-3.839c-0.14,-0.356 -0.024,-0.42 0.77,-0.42c1.191,0 3.438,-0.582 4.587,-1.189Zm4.592,4.105c-0.325,-2.987 -0.15,-4.716 0.455,-4.471c0.221,0.09 1.095,0.429 1.941,0.752c0.847,0.324 2.229,0.653 3.072,0.732c1.279,0.119 1.507,0.206 1.378,0.527c-0.085,0.211 -0.688,1.968 -1.339,3.904c-1.399,4.164 -2,6.788 -2.397,10.461c-0.16,1.485 -0.336,2.656 -0.39,2.602c-0.223,-0.224 -2.469,-12.205 -2.72,-14.507Z" style="fill:#757575;"/><path id="glutes" d="M54.455,91.627c0.095,0 0.544,0.279 0.998,0.62c0.455,0.341 1.69,1.057 2.745,1.592c3.804,1.928 6.717,4.264 7.357,5.901c0.418,1.068 0.908,4.146 0.917,5.76c0.009,1.692 -0.546,4.42 -1.219,5.99c-0.535,1.248 -2.598,3.488 -3.936,4.271c-0.533,0.313 -1.64,0.74 -2.46,0.95c-3.555,0.911 -8.817,-1.035 -10.325,-3.819c-0.326,-0.602 -0.419,-1.598 -0.488,-5.185c-0.113,-5.944 0.145,-8.139 1.222,-10.408c0.463,-0.975 1.259,-2.237 1.768,-2.802c0.949,-1.054 3.114,-2.87 3.421,-2.87Zm-13.218,0.012c0.043,-0.006 0.529,0.299 1.08,0.679c1.443,0.993 3.145,2.892 3.865,4.313c1.173,2.316 1.338,3.509 1.338,9.696c0,5.259 -0.039,5.795 -0.483,6.667c-1.172,2.295 -4.642,3.942 -8.286,3.931c-1.648,-0.005 -2.157,-0.113 -3.48,-0.74c-1.808,-0.856 -3.837,-2.782 -4.693,-4.453c-1.71,-3.34 -1.7,-10.106 0.018,-12.703c0.939,-1.418 3.594,-3.454 6.361,-4.877c1.388,-0.714 2.901,-1.569 3.363,-1.9c0.462,-0.331 0.875,-0.607 0.917,-0.613Zm-6.797,-1.711c0.987,-0.19 2.108,-0.038 4.026,0.547c0.894,0.273 1.685,0.592 1.758,0.711c0.21,0.341 -0.814,1.059 -3.144,2.203c-2.16,1.061 -4.526,2.683 -5.622,3.855c-0.32,0.343 -0.666,0.623 -0.769,0.623c-0.275,0 1.194,-4.096 2.183,-6.089c0.714,-1.441 0.962,-1.733 1.568,-1.85Zm24.24,0.132c1.806,-0.395 2.105,-0.408 2.855,-0.123c0.663,0.252 1.181,1.146 2.325,4.009c1.046,2.62 1.455,4.004 1.101,3.732c-0.155,-0.119 -1.028,-0.824 -1.941,-1.568c-0.913,-0.744 -2.587,-1.806 -3.72,-2.36c-2.03,-0.993 -3.845,-2.113 -3.855,-2.379c-0.01,-0.262 1.811,-1 3.235,-1.311Z" style="fill:#757575;"/><path id="forearms_rear" d="M74.638,79.147c0.146,0 0.546,0.297 0.889,0.66c0.909,0.962 2.209,3.908 2.771,6.278c1.448,6.109 2.946,11.974 3.677,14.393c0.952,3.149 0.969,3.292 0.405,3.454c-0.231,0.066 -0.593,0.192 -0.804,0.28c-0.317,0.131 -0.608,-0.488 -1.633,-3.466c-0.686,-1.995 -2.089,-5.429 -3.118,-7.633c-3.866,-8.281 -3.696,-7.811 -3.575,-9.86c0.111,-1.86 0.869,-4.106 1.388,-4.106Zm-54.38,0.6c0.765,-0.765 1.011,-0.755 1.427,0.06c0.453,0.888 0.875,2.958 0.875,4.292c-0,1.112 -0.452,2.308 -2.572,6.808c-2.14,4.54 -4.46,10.35 -5.24,13.122c-0.059,0.212 -0.292,0.217 -0.934,0.02c-0.47,-0.144 -0.854,-0.339 -0.854,-0.433c-0,-0.093 0.533,-2.046 1.184,-4.339c1.538,-5.413 2.323,-8.547 3.027,-12.074c0.612,-3.067 1.964,-6.332 3.087,-7.456Zm59.671,-2.88c1.005,-4.164 0.924,-4.014 1.494,-2.76c0.403,0.887 0.527,1.852 0.692,5.4c0.383,8.234 1.546,17.154 2.962,22.71c0.141,0.554 0.065,0.663 -0.623,0.903c-0.431,0.15 -0.863,0.191 -0.96,0.09c-0.567,-0.59 -4.144,-14.258 -4.495,-17.176c-0.268,-2.227 0.078,-5.633 0.93,-9.167Zm-65.7,-2.335c0.285,-0.755 0.582,-1.295 0.66,-1.2c0.079,0.096 0.513,1.633 0.966,3.415c0.762,3.001 0.823,3.515 0.824,6.96c0.001,3.694 -0.008,3.754 -1.247,8.64c-1.533,6.041 -2.832,10.536 -3.133,10.837c-0.185,0.185 -0.87,0.019 -1.679,-0.406c-0.034,-0.017 0.15,-0.854 0.407,-1.86c1.284,-5.02 2.35,-13.524 2.548,-20.331c0.117,-3.993 0.213,-4.882 0.654,-6.055Zm68.341,3.535c0.007,-1.011 0.303,-0.418 0.915,1.832c0.274,1.008 0.877,4.788 1.34,8.4c0.753,5.873 1.842,12.574 2.193,13.487c0.111,0.292 -0.482,0.624 -1.138,0.637c-0.42,0.009 -1.876,-7.827 -2.473,-13.316c-0.367,-3.375 -0.847,-9.696 -0.837,-11.04Zm-69.448,-0.6c0.07,0 0.055,1.593 -0.034,3.54c-0.293,6.425 -1.501,15.548 -2.642,19.943c-0.397,1.533 -0.425,1.567 -1.095,1.354c-0.438,-0.139 -0.503,-0.293 -0.39,-0.922c0.074,-0.415 0.304,-1.673 0.511,-2.795c0.207,-1.122 0.81,-5.334 1.341,-9.36c0.531,-4.026 1.077,-7.752 1.214,-8.28c0.567,-2.183 0.975,-3.48 1.095,-3.48Z" style="fill:#757575;"/><path id="lower_back" d="M45.647,69.727c0.589,-0.509 0.551,-0.507 1.016,-0.043c0.273,0.273 0.352,1.328 0.371,7.763c0.024,2.795 0.025,5.992 0.004,8.879c-0.012,7.814 -0.077,8.661 -0.389,8.661c-0.215,0 -1.376,-1.019 -2.58,-2.265c-1.883,-1.947 -2.483,-2.405 -4.289,-3.27c-1.155,-0.552 -2.1,-1.079 -2.1,-1.17c0,-0.091 0.334,-0.483 0.741,-0.87c1.195,-1.135 1.446,-1.874 1.66,-4.873c0.109,-1.536 0.32,-3.106 0.467,-3.49c0.577,-1.497 4.639,-8.925 5.099,-9.322Zm3.328,0.045c0.438,-0.438 0.561,-0.46 0.991,-0.175c0.269,0.18 1.618,2.537 2.998,5.238l2.508,4.912l0.194,2.773c0.208,2.988 0.467,3.746 1.673,4.892c0.755,0.718 0.967,1.335 0.459,1.335c-0.156,0 -1.159,0.424 -2.23,0.943c-1.619,0.783 -2.3,1.311 -4.047,3.135c-1.241,1.297 -2.11,2.046 -2.441,2.112c-0.049,0.033 -0.084,0.05 -0.102,0.05c-0.012,-0 -0.024,-0.025 -0.036,-0.074c-0.316,-0.206 -0.35,-1.69 -0.404,-12.347c-0.062,-12.178 -0.058,-12.299 0.437,-12.794Z" style="fill:#757575;"/><path id="lat_rear" d="M27.693,56.063c-0.112,-0.181 -0.016,-0.223 0.29,-0.125c0.251,0.081 1.213,0.375 2.137,0.654c2.056,0.622 4.598,0.521 7.09,-0.282c1.299,-0.418 1.711,-0.467 1.988,-0.238c0.344,0.286 5.238,8.88 6.081,10.68l0.434,0.925l-5.528,10.859c-0.179,0.461 -0.318,0.884 -0.43,1.303l-0.595,5.898l-0.857,0.785c-0.471,0.432 -1.006,0.785 -1.189,0.785c-0.193,-0 -0.691,-0.881 -1.188,-2.1c-0.47,-1.155 -1.297,-3.108 -1.838,-4.341c-0.54,-1.232 -1.407,-3.716 -1.926,-5.52c-0.519,-1.803 -1.607,-5.331 -2.417,-7.839c-1.392,-4.31 -1.485,-4.741 -1.678,-7.865c-0.113,-1.819 -0.281,-3.429 -0.374,-3.579Zm40.179,-0.196c0.039,0 0.006,1.377 -0.074,3.06c-0.159,3.352 -0.212,3.582 -2.416,10.38c-0.835,2.574 -1.691,5.365 -1.902,6.202c-0.522,2.065 -1.829,5.632 -2.701,7.37c-0.395,0.785 -0.961,2.103 -1.26,2.928c-0.299,0.825 -0.673,1.5 -0.831,1.5c-0.158,0 -0.691,-0.351 -1.183,-0.78c-0.317,-0.276 -0.566,-0.562 -0.758,-0.895l-0.177,-0.162l-0.018,-0.238c-0.276,-0.679 -0.381,-1.557 -0.386,-2.855c-0.009,-2.322 -0.529,-3.754 -3.372,-9.3c-1.896,-3.697 -2.642,-5.384 -2.547,-5.76c0.163,-0.645 5.577,-10.439 6.097,-11.03c0.455,-0.516 0.266,-0.525 2.441,0.11c2.517,0.734 5.849,0.732 7.695,-0.004c0.726,-0.289 1.352,-0.526 1.392,-0.526Z" style="fill:#f3fc01;"/><path id="triceps" d="M74.65,61.867c0.115,0 0.506,0.506 0.869,1.125c0.83,1.416 1.662,4.265 2.01,6.883c0.313,2.349 0.166,2.796 -1.42,4.332l-0.971,0.94l-0.272,-0.7c-0.659,-1.694 -1.426,-5.329 -1.426,-6.761c0,-1.671 0.862,-5.819 1.21,-5.819Zm-55.162,2.76c0.643,-1.643 1.41,-2.838 1.659,-2.589c0.114,0.114 0.424,1.057 0.69,2.096c0.653,2.553 0.616,4.682 -0.133,7.635c-0.918,3.621 -0.878,3.583 -2.287,2.195c-1.176,-1.158 -1.177,-1.16 -1.177,-2.762c0,-1.85 0.567,-4.839 1.248,-6.575Zm50.123,-15.48c0.117,0 0.591,0.378 1.052,0.839c0.665,0.665 1.018,1.401 1.696,3.54c0.472,1.486 1.078,3.795 1.348,5.132l0.49,2.43l-0.488,1.583c-0.269,0.871 -0.608,2.477 -0.754,3.57c-0.287,2.162 -0.006,4.202 0.971,7.042c0.261,0.76 0.434,1.424 0.384,1.474c-0.05,0.05 -0.69,-0.571 -1.421,-1.379c-1.712,-1.892 -2.784,-3.968 -3.899,-7.551c-0.889,-2.855 -0.895,-2.906 -0.752,-5.88c0.079,-1.65 0.306,-4.026 0.504,-5.28c0.199,-1.254 0.427,-3.009 0.509,-3.9c0.081,-0.891 0.243,-1.62 0.36,-1.62Zm-43.41,0.001c0.088,-0 0.227,0.728 0.307,1.619c0.081,0.891 0.325,2.808 0.543,4.26c0.218,1.452 0.404,3.99 0.412,5.64c0.016,2.852 -0.028,3.139 -0.903,5.81c-0.507,1.546 -1.317,3.452 -1.8,4.237c-0.99,1.604 -2.814,3.816 -2.998,3.633c-0.066,-0.066 0.147,-1.092 0.472,-2.28c0.515,-1.876 0.579,-2.523 0.488,-4.92c-0.075,-1.973 -0.256,-3.223 -0.637,-4.385c-0.479,-1.462 -0.505,-1.78 -0.261,-3.185c0.363,-2.082 1.843,-7.14 2.45,-8.367c0.441,-0.895 1.53,-2.059 1.927,-2.062Zm46.74,2.865c0.375,0.267 1.499,1.249 2.497,2.182c2.064,1.926 2.409,2.627 3.312,6.724c0.764,3.46 0.798,8.011 0.074,9.588l-0.496,1.08l-0.398,-2.568c-0.467,-3.019 -1.07,-4.856 -2.19,-6.672c-0.57,-0.925 -1.08,-2.357 -1.706,-4.788c-0.491,-1.908 -1.092,-4.045 -1.334,-4.75l-0.441,-1.281l0.682,0.485Zm-49.627,-0.466c0.099,0 -0.017,0.572 -0.257,1.272c-0.241,0.699 -0.834,2.809 -1.319,4.689c-0.574,2.23 -1.127,3.806 -1.59,4.536c-1.241,1.957 -2.382,5.746 -2.392,7.938c-0.004,0.966 -0.139,1.373 -0.368,1.217l-0.022,0.148l-0.088,-0.257c-0.129,-0.164 -0.281,-0.471 -0.45,-0.923c-0.861,-2.3 -0.68,-5.644 0.597,-11.06l0.623,-2.64l2.543,-2.46c1.398,-1.352 2.623,-2.459 2.723,-2.46Z" style="fill:#757575;"/><path id="mid_back" d="M61.048,38.119c0.421,-0.011 0.424,0.024 0.06,0.588c-0.214,0.33 -0.54,0.843 -0.726,1.14c-0.533,0.853 -1.699,4.759 -2.668,8.94c-1.055,4.552 -1.912,7.079 -3.175,9.362c-4.517,8.162 -5.507,9.791 -5.828,9.593c-0.142,-0.089 -0.231,-4.215 -0.231,-10.749l0,-10.606l0.69,-1.457c0.858,-1.815 1.972,-3.101 3.247,-3.753c1.245,-0.636 8.033,-3.041 8.631,-3.058Zm-26.488,0.079c0,-0.178 1.254,0.183 4.343,1.25c1.663,0.575 3.507,1.252 4.099,1.505c1.21,0.519 2.538,1.941 3.364,3.601c0.157,0.315 0.269,0.545 0.351,0.968l0.203,0.385l0.069,10.897c0.028,4.382 0.036,7.023 0.007,8.577c-0.032,2.103 -0.12,2.424 -0.298,2.245c-0.197,-0.198 -1.242,-1.925 -2.324,-3.839c-4.548,-8.046 -4.893,-8.882 -6.579,-15.96c-1.117,-4.687 -1.896,-7.195 -2.636,-8.485c-0.329,-0.574 -0.599,-1.089 -0.599,-1.144Z" style="fill:#757575;"/><path id="delts_rear" d="M27.216,48.667c0.2,0.001 1.277,0.914 2.394,2.03c2.141,2.142 3.773,3.315 5.85,4.208c0.693,0.297 1.26,0.632 1.26,0.742c-0,0.364 -2.006,0.78 -3.84,0.797c-1.936,0.017 -3.849,-0.497 -4.89,-1.316c-0.624,-0.491 -0.664,-0.684 -0.996,-4.721c-0.117,-1.422 -0.086,-1.725 0.199,-1.739l0.003,-0.001l0.002,0l0.018,0Zm41.421,0c0.134,0 0.243,0.205 0.243,0.455c0,1.299 -0.295,3.597 -0.582,4.898c-0.023,0.165 -0.042,0.288 -0.059,0.357c-0.018,0.072 -0.047,0.143 -0.087,0.214c-0.057,0.185 -0.111,0.314 -0.16,0.368c-0.734,0.812 -2.941,1.457 -4.992,1.46c-1.858,0.002 -3.961,-0.391 -3.959,-0.741c0.001,-0.094 1.013,-0.686 2.25,-1.315c1.755,-0.893 2.783,-1.646 4.677,-3.42c1.334,-1.252 2.536,-2.276 2.669,-2.276Zm-34.604,-7.436c0.173,-0.002 0.636,0.347 1.03,0.776c0.814,0.888 1.397,2.675 2.72,8.34c0.478,2.046 0.937,3.979 1.021,4.297c0.147,0.561 0.123,0.572 -0.906,0.409c-2.003,-0.317 -4.909,-1.949 -6.81,-3.824c-1.973,-1.947 -3.17,-3.971 -2.78,-4.7c0.355,-0.663 5.358,-5.293 5.725,-5.298Zm27.785,-0.004c0.209,0 1.613,1.206 3.12,2.679c1.275,1.245 2.136,2.179 2.517,2.724l0.269,0.267l-0.054,0.128c0.006,0.023 0.009,0.043 0.009,0.061c-0.003,1.481 -3.77,5.364 -6.479,6.679c-1.783,0.866 -3.986,1.556 -4.219,1.323c-0.207,-0.207 2.521,-10.964 3.034,-11.971c0.516,-1.01 1.122,-1.703 1.608,-1.857c0.051,-0.022 0.097,-0.033 0.139,-0.033c0.003,0 0.006,0.001 0.009,0.002c0.016,-0.001 0.032,-0.002 0.047,-0.002Zm-0.138,-1.639c0,-1.039 5.056,-4.438 6.304,-4.238c0.366,0.059 1.5,0.454 2.52,0.878c2.534,1.054 3.974,2.514 5.423,5.498c1.647,3.395 1.917,4.73 1.77,8.741c-0.089,2.399 -0.076,3.645 -0.471,3.896l-0.066,0.333l-0.423,-0.378c-0.56,-0.279 -1.489,-1.183 -3.06,-2.63c-4.386,-4.042 -11.997,-11.718 -11.997,-12.1Zm-33.551,-4.356c0.093,-0.003 1.119,0.541 2.28,1.208c2.333,1.341 3.671,2.491 3.671,3.157c-0.001,0.802 -15.082,15.427 -15.489,15.021c-0.312,-0.312 -0.667,-3.236 -0.664,-5.471c0.004,-3.029 0.646,-5.284 2.355,-8.275c1.268,-2.22 2.001,-3.054 3.42,-3.89c0.891,-0.525 3.953,-1.736 4.427,-1.75Z" style="fill:#757575;"/><path id="traps" d="M49.56,19.953c1.491,-0.449 1.774,-0.4 1.941,0.334c1.117,4.906 1.866,6.664 3.501,8.22c0.78,0.742 2.716,1.907 6.18,3.72c2.773,1.452 5.046,2.713 5.051,2.801c0.007,0.178 -1.921,0.935 -9.462,3.712c-4.759,1.753 -5.094,1.917 -6.253,3.07c-0.674,0.669 -1.402,1.487 -1.619,1.817l-0.394,0.6l-0.013,-1.053c-0.006,-0.579 0.22,-2.507 0.504,-4.285l0.515,-3.232l-0.528,-2.915c-0.452,-2.496 -0.517,-3.603 -0.455,-7.708l-0,-0l-0.107,-4.445l0.175,-0.076l0.004,-0.271l0.96,-0.289Zm-5.744,1.973c0.507,-2.451 0.456,-2.376 1.487,-2.187c0.493,0.09 1.153,0.328 1.465,0.53l0.103,0.066l0.169,0.059l-0,0.05l0.296,0.19l-0.124,5.437c-0.087,3.805 -0.237,5.868 -0.499,6.876c-0.471,1.805 -0.483,3.134 -0.055,5.943c0.496,3.246 0.651,4.979 0.444,4.959c-0.1,-0.01 -0.62,-0.576 -1.155,-1.259c-0.535,-0.683 -1.306,-1.466 -1.713,-1.74c-0.408,-0.275 -2.778,-1.237 -5.267,-2.138c-7.202,-2.607 -9.46,-3.509 -9.328,-3.723c0.068,-0.11 2.029,-1.203 4.357,-2.428c2.328,-1.224 4.845,-2.622 5.593,-3.105c2.121,-1.371 3.437,-3.716 4.227,-7.53Z" style="fill:#757575;"/></g></svg>